<?xml version="1.0" encoding="UTF-8" standalone="no"?>
<!-- Created with Inkscape (http://www.inkscape.org/) -->

<svg
   xmlns:dc="http://purl.org/dc/elements/1.1/"
   xmlns:cc="http://creativecommons.org/ns#"
   xmlns:rdf="http://www.w3.org/1999/02/22-rdf-syntax-ns#"
   xmlns:svg="http://www.w3.org/2000/svg"
   xmlns="http://www.w3.org/2000/svg"
   version="1.1"
   width="374.65201"
   height="325.15033"
   id="svg3557">
  <defs
     id="defs3559" />
  <metadata
     id="metadata3562">
    <rdf:RDF>
      <cc:Work
         rdf:about="">
        <dc:format>image/svg+xml</dc:format>
        <dc:type
           rdf:resource="http://purl.org/dc/dcmitype/StillImage" />
        <dc:title></dc:title>
      </cc:Work>
    </rdf:RDF>
  </metadata>
  <g
     transform="translate(-187.674,-366.01312)"
     id="layer1">
    <path
       d="m 513.573,468.32344 v 9.2 c -0.64,8.67 -21.909,8.62 -22.54,0 v -9.2 c 0.641,8.65 21.901,8.67 22.54,0 z"
       id="path3661"
       style="fill:#a06e6e" />
    <path
       d="m 513.573,468.28344 v 0.04 c -0.64,8.67 -21.899,8.65 -22.54,0 0.721,-8.58 21.75,-8.62 22.54,-0.04 z"
       id="path3663"
       style="fill:#a06e6e" />
    <path
       d="m 513.573,468.32344 v 9.2 c -0.64,8.67 -21.909,8.62 -22.54,0 v -9.2 c 0.641,8.65 21.901,8.67 22.54,0 z"
       id="path3665"
       style="fill:#2e3436" />
    <path
       d="m 513.573,468.28344 v 0.04 c -0.64,8.67 -21.899,8.65 -22.54,0 0.721,-8.58 21.75,-8.62 22.54,-0.04 z"
       id="path3667"
       style="fill:#2e3436" />
    <path
       d="m 386.264,541.84344 v 9.2 c -0.74,8.62 -21.8,8.64 -22.54,0 v -9.2 c 0.73,8.67 21.82,8.63 22.54,0 z"
       id="path3669"
       style="fill:#2e3436" />
    <path
       d="m 363.724,541.84344 c 0.72,-8.62 21.82,-8.6 22.54,0 -0.72,8.63 -21.81,8.67 -22.54,0 z"
       id="path3671"
       style="fill:#2e3436" />
    <path
       d="m 258.904,468.32344 v 9.2 c -0.59,8.66 -21.86,8.65 -22.49,0 v -9.2 c 0.64,8.66 21.88,8.67 22.49,0 z"
       id="path3675"
       style="fill:#2e3436" />
    <path
       d="m 258.904,468.28344 v 0.04 c -0.61,8.67 -21.85,8.66 -22.49,0 0.7,-8.59 21.76,-8.61 22.49,-0.04 z"
       id="path3677"
       style="fill:#2e3436" />
    <path
       d="m 553.354,482.14344 c 0.03,1.98 -1.66,3.66 -3.27,4.57 l -0.021,-0.04 -167.14,96.53 c -4.28,2.55 -11.61,2.52 -15.91,0 l -0.68,-0.391 0.68,-1.18 v -1.53 l 0.58,-1.2 c 4.66,2.221 10.77,2.16 15.3,-0.26 l -0.01,-0.02 167.18,-96.48 c 2.061,-1.22 3.16,-2.75 3.29,-4.3 v 4.301 z"
       id="path3679"
       style="fill:#babdb6" />
    <path
       d="m 247.664,556.56344 -15.92,-9.189 c -2.41,2.26 -4.58,6.29 -4.52,9.67 v 9.77 l -35.26,-20.351 c -1.67,-1.05 -3.28,-2.49 -3.29,-4.62 v -59.69 c 0,1.65 1.09,3.3 3.29,4.57 l 175.05,101.1 c 4.72,2.49 11.16,2.53 15.88,0.021 l -0.01,-0.021 175.14,-101.1 c 2.061,-1.23 3.16,-2.73 3.29,-4.26 v 59.38 c 0.021,2.09 -1.66,3.57 -3.27,4.61 l -0.021,-0.03 -40.02,23.1 v 0.01 l -5.021,2.9 -9.979,5.76 -120.08,69.33 c -4.28,2.55 -11.61,2.53 -15.91,0 l -39.78,-22.97 v -22.01 l -15.92,-9.19 c -2.56,2.5 -4.45,5.93 -4.52,9.57 0,0.02 0,0.03 0,0.05 v 9.771 l -59.129,-34.121 v -0.04 -22.02 z"
       id="path3681"
       style="fill:#a06e6e" />
    <polygon
       points="334.26,215.38 338.719,206.42 343.74,203.52 337.69,215.57 "
       transform="translate(174.264,366.01344)"
       id="polygon3683"
       style="fill:#babdb6" />
    <polygon
       points="334.26,215.38 328.74,212.18 338.719,206.42 "
       transform="translate(174.264,366.01344)"
       id="polygon3685"
       style="fill:#babdb6" />
    <path
       d="m 386.264,394.85344 v 9.2 c -0.72,8.6 -21.82,8.62 -22.54,0 v -9.2 c 0.72,8.63 21.82,8.6 22.54,0 z"
       id="path3687"
       style="fill:#a06e6e" />
    <path
       d="m 386.264,394.81344 v 0.04 c -0.72,8.6 -21.82,8.63 -22.54,0 0.64,-8.65 21.84,-8.62 22.54,-0.04 z"
       id="path3689"
       style="fill:#a06e6e" />
    <path
       d="m 386.264,541.84344 c -0.72,-8.6 -21.82,-8.62 -22.54,0 v 9.2 c 0.74,8.64 21.8,8.62 22.54,0 v -9.2 z m -22.54,-137.79 c 0.72,8.62 21.82,8.6 22.54,0 v -9.2 -0.04 c -0.7,-8.58 -21.9,-8.61 -22.54,0.04 v 9.2 z m 189.63,73.79 c -0.13,1.55 -1.229,3.08 -3.29,4.3 l -167.18,96.48 0.01,0.02 c -4.53,2.42 -10.64,2.48 -15.3,0.26 -0.2,-0.08 -0.39,-0.18 -0.58,-0.279 l -167.14,-96.531 -0.01,0.01 c -2.16,-1.29 -3.23,-2.93 -3.23,-4.57 v -0.01 c 0,-1.65 1.1,-3.29 3.29,-4.57 l 167.09,-96.53 0.02,0.03 c 4.3,-2.51 11.62,-2.54 15.89,0.01 l 167.14,96.49 c 2.33,1.36 3.43,3.14 3.29,4.89 z m -179.34,-64.83 c -18.94,0.2 -39.34,4.17 -55.88,13.72 -11.71,6.78 -23,18.04 -23.06,32.45 v 18.34 c 0.13,14.62 11.5,25.85 23.44,32.64 16.78,9.62 37.27,13.44 56.46,13.53 19.21,-0.08 39.69,-3.91 56.5,-13.53 11.83,-6.74 23.39,-18.09 23.4,-32.64 v -17.64 c 0.02,-0.61 0.02,-1.23 0,-1.85 -0.681,-14.5 -12.48,-25.51 -24.44,-32.06 -16.861,-9.35 -37.3,-13 -56.42,-12.96 z m 139.559,64.51 v -9.2 -0.04 c -0.79,-8.58 -21.819,-8.54 -22.54,0.04 v 9.2 c 0.631,8.62 21.901,8.67 22.54,0 z m -254.669,0 v -9.2 -0.04 c -0.73,-8.57 -21.79,-8.55 -22.49,0.04 v 9.2 c 0.63,8.65 21.9,8.66 22.49,0 z"
       id="path3691"
       style="fill:#a06e6e" />
    <path
       d="m 322.704,612.12344 c 0.07,-3.641 1.96,-7.07 4.53,-9.58 v 22.01 l -8.81,31.31 h -0.01 l -5.76,7 10.04,-35.699 0.01,0.01 v -0.04 -14.96 c 0,-0.021 0,-0.031 0,-0.051 z"
       id="path3693"
       style="fill:#babdb6" />
    <path
       d="m 327.234,602.54344 c -2.57,2.51 -4.46,5.939 -4.53,9.58 0,0.02 0,0.029 0,0.05 v 14.96 l -0.01,0.03 -15.9,-9.2 v -0.03 -5.189 -9.771 c 0,-0.02 0,-0.03 0,-0.05 0.07,-3.641 1.96,-7.07 4.52,-9.57 l 15.92,9.19 z"
       id="path3695"
       style="fill:#babdb6" />
    <path
       d="m 312.344,668.49344 11.53,21.63 -0.01,0.02 -6.33,-3.68 -17.91,-23.85 1.12,-0.84 8.48,4.9 2.74,-0.101 c 0.01,0.681 0.13,1.341 0.4,1.91 l -0.02,0.011 z"
       id="path3697"
       style="fill:#babdb6" />
    <path
       d="m 312.654,662.86344 5.76,-7 h 0.01 l -0.01,0.04 -1.56,4.181 0.04,0.02 c -0.52,1.54 -1.13,4.11 -0.24,5.62 l 10.77,20.25 -3.55,4.15 -11.53,-21.63 0.02,-0.011 c -0.27,-0.569 -0.39,-1.229 -0.4,-1.91 -0.05,-1.28 0.29,-2.65 0.69,-3.71 z"
       id="path3699"
       style="fill:#babdb6" />
    <path
       d="m 312.654,662.86344 c -0.4,1.061 -0.74,2.431 -0.69,3.71 l -2.74,0.101 -8.48,-4.9 -1.12,0.84 -1.93,-2.56 c -1.31,-1.99 -1.41,-4.1 -0.96,-6.38 l 10.05,-35.72 0.01,0.01 15.9,9.2 -10.04,35.699 z"
       id="path3701"
       style="fill:#babdb6" />
    <path
       d="m 247.664,556.56344 v 22.021 l -8.82,31.39 -5.73,6.87 10.02,-35.6 v -15 c -0.06,-3.341 2.09,-7.471 4.53,-9.681 z"
       id="path3703"
       style="fill:#babdb6" />
    <path
       d="m 231.744,547.37344 15.92,9.189 c -2.44,2.21 -4.59,6.34 -4.53,9.681 v 15 l -15.91,-9.19 v -5.24 -9.77 c -0.06,-3.38 2.11,-7.41 4.52,-9.67 z"
       id="path3705"
       style="fill:#babdb6" />
    <path
       d="m 237.284,614.15344 0.04,0.021 c -0.6,1.87 -1.1,3.72 -0.29,5.62 l 10.77,20.2 -3.5,4.199 -11.53,-21.63 0.02,-0.01 c -0.32,-0.521 -0.44,-1.23 -0.44,-2 0,-1.29 0.35,-2.73 0.73,-3.62 l 0.03,-0.09 5.73,-6.87 -1.56,4.18 z"
       id="path3707"
       style="fill:#babdb6" />
    <path
       d="m 233.114,616.84344 -0.03,0.09 c -0.38,0.89 -0.73,2.33 -0.73,3.62 l -2.65,0.24 -8.44,-4.91 -1.14,0.86 -2,-2.671 c -1.28,-1.54 -1.41,-4.47 -0.96,-6.34 l 10.06,-35.68 15.91,9.19 -10.02,35.601 z"
       id="path3709"
       style="fill:#babdb6" />
    <path
       d="m 232.774,622.56344 11.53,21.63 -0.01,0.021 -6.3,-3.65 -17.87,-23.821 1.14,-0.86 8.44,4.91 2.65,-0.24 c 0,0.77 0.12,1.479 0.44,2 l -0.02,0.01 z"
       id="path3711"
       style="fill:#babdb6" />
    <path
       d="m 196.634,477.52344 v 0.01 4.61 c -0.03,1.99 1.67,3.67 3.29,4.58 l 166.41,96.09 0.68,0.391 c 4.3,2.52 11.63,2.55 15.91,0 l 167.14,-96.53 0.021,0.04 c 1.609,-0.91 3.3,-2.59 3.27,-4.57 v -4.3 c 0.141,-1.75 -0.96,-3.53 -3.29,-4.89 l 0.01,-0.02 7.95,4.59 c 2.33,1.43 3.431,3.2 3.29,4.94 -0.13,1.53 -1.229,3.03 -3.29,4.26 l -175.14,101.1 0.01,0.021 c -4.72,2.51 -11.16,2.47 -15.88,-0.021 l -175.051,-101.101 c -2.2,-1.27 -3.29,-2.92 -3.29,-4.57 v -0.01 c 0,-1.65 1.09,-3.3 3.25,-4.6 l -0.01,-0.02 8.01,-4.57 c -2.19,1.28 -3.29,2.92 -3.29,4.57 z"
       id="path3713"
       style="fill:#a06e6e" />
    <path
       d="m 199.874,482.09344 167.14,96.53 c 0.19,0.1 0.38,0.199 0.58,0.279 l -0.58,1.2 v 1.53 l -0.68,1.18 -166.41,-96.089 c -1.62,-0.91 -3.32,-2.59 -3.29,-4.58 v -4.61 c 0,1.64 1.07,3.28 3.23,4.57 l 0.01,-0.01 z"
       id="path3715"
       style="fill:#a06e6e" />
    <path
       d="m 199.874,482.09344 167.14,96.53 c 0.19,0.1 0.38,0.199 0.58,0.279 l -0.58,1.2 v 1.53 l -0.68,1.18 -166.41,-96.089 c -1.62,-0.91 -3.32,-2.59 -3.29,-4.58 v -4.61 c 0,1.64 1.07,3.28 3.23,4.57 l 0.01,-0.01 z"
       id="path3717"
       style="fill:#babdb6" />
    <path
       d="m 247.664,556.56344 -15.92,-9.189 c -2.41,2.26 -4.58,6.29 -4.52,9.67 v 9.77 l -35.26,-20.351 c -1.67,-1.05 -3.28,-2.49 -3.29,-4.62 v -59.69 c 0,1.65 1.09,3.3 3.29,4.57 l 175.05,101.1 c 4.72,2.49 11.16,2.53 15.88,0.021 l -0.01,-0.021 175.14,-101.1 c 2.061,-1.23 3.16,-2.73 3.29,-4.26 v 59.38 c 0.021,2.09 -1.66,3.57 -3.27,4.61 l -0.021,-0.03 -40.02,23.1 v 0.01 l -5.021,2.9 -9.979,5.76 -120.08,69.33 c -4.28,2.55 -11.61,2.53 -15.91,0 l -39.78,-22.97 v -22.01 l -15.92,-9.19 c -2.56,2.5 -4.45,5.93 -4.52,9.57 0,0.02 0,0.03 0,0.05 v 9.771 l -59.129,-34.121 v -0.04 -22.02 z"
       id="path3719"
       style="fill:#2e3436" />
    <polygon
       points="334.26,215.38 338.719,206.42 343.74,203.52 337.69,215.57 "
       transform="translate(174.264,366.01344)"
       id="polygon3721"
       style="fill:#babdb6" />
    <polygon
       points="334.26,215.38 328.74,212.18 338.719,206.42 "
       transform="translate(174.264,366.01344)"
       id="polygon3723"
       style="fill:#babdb6" />
    <path
       d="m 386.264,394.85344 v 9.2 c -0.72,8.6 -21.82,8.62 -22.54,0 v -9.2 c 0.72,8.63 21.82,8.6 22.54,0 z"
       id="path3725"
       style="fill:#2e3436" />
    <path
       d="m 386.264,394.81344 v 0.04 c -0.72,8.6 -21.82,8.63 -22.54,0 0.64,-8.65 21.84,-8.62 22.54,-0.04 z"
       id="path3727"
       style="fill:#2e3436" />
    <path
       d="m 386.264,541.84344 c -0.72,-8.6 -21.82,-8.62 -22.54,0 v 9.2 c 0.74,8.64 21.8,8.62 22.54,0 v -9.2 z m -22.54,-137.79 c 0.72,8.62 21.82,8.6 22.54,0 v -9.2 -0.04 c -0.7,-8.58 -21.9,-8.61 -22.54,0.04 v 9.2 z m 189.63,73.79 c -0.13,1.55 -1.229,3.08 -3.29,4.3 l -167.18,96.48 0.01,0.02 c -4.53,2.42 -10.64,2.48 -15.3,0.26 -0.2,-0.08 -0.39,-0.18 -0.58,-0.279 l -167.14,-96.531 -0.01,0.01 c -2.16,-1.29 -3.23,-2.93 -3.23,-4.57 v -0.01 c 0,-1.65 1.1,-3.29 3.29,-4.57 l 167.09,-96.53 0.02,0.03 c 4.3,-2.51 11.62,-2.54 15.89,0.01 l 167.14,96.49 c 2.33,1.36 3.43,3.14 3.29,4.89 z m -179.34,-64.83 c -18.94,0.2 -39.34,4.17 -55.88,13.72 -11.71,6.78 -23,18.04 -23.06,32.45 v 18.34 c 0.13,14.62 11.5,25.85 23.44,32.64 16.78,9.62 37.27,13.44 56.46,13.53 19.21,-0.08 39.69,-3.91 56.5,-13.53 11.83,-6.74 23.39,-18.09 23.4,-32.64 v -17.64 c 0.02,-0.61 0.02,-1.23 0,-1.85 -0.681,-14.5 -12.48,-25.51 -24.44,-32.06 -16.861,-9.35 -37.3,-13 -56.42,-12.96 z m 139.559,64.51 v -9.2 -0.04 c -0.79,-8.58 -21.819,-8.54 -22.54,0.04 v 9.2 c 0.631,8.62 21.901,8.67 22.54,0 z m -254.669,0 v -9.2 -0.04 c -0.73,-8.57 -21.79,-8.55 -22.49,0.04 v 9.2 c 0.63,8.65 21.9,8.66 22.49,0 z"
       id="path3729"
       style="fill:#babdb6" />
    <path
       d="m 322.704,612.12344 c 0.07,-3.641 1.96,-7.07 4.53,-9.58 v 22.01 l -8.81,31.31 h -0.01 l -5.76,7 10.04,-35.699 0.01,0.01 v -0.04 -14.96 c 0,-0.021 0,-0.031 0,-0.051 z"
       id="path3731"
       style="fill:#babdb6" />
    <path
       d="m 327.234,602.54344 c -2.57,2.51 -4.46,5.939 -4.53,9.58 0,0.02 0,0.029 0,0.05 v 14.96 l -0.01,0.03 -15.9,-9.2 v -0.03 -5.189 -9.771 c 0,-0.02 0,-0.03 0,-0.05 0.07,-3.641 1.96,-7.07 4.52,-9.57 l 15.92,9.19 z"
       id="path3733"
       style="fill:#babdb6" />
    <path
       d="m 312.344,668.49344 11.53,21.63 -0.01,0.02 -6.33,-3.68 -17.91,-23.85 1.12,-0.84 8.48,4.9 2.74,-0.101 c 0.01,0.681 0.13,1.341 0.4,1.91 l -0.02,0.011 z"
       id="path3735"
       style="fill:#babdb6" />
    <path
       d="m 312.654,662.86344 5.76,-7 h 0.01 l -0.01,0.04 -1.56,4.181 0.04,0.02 c -0.52,1.54 -1.13,4.11 -0.24,5.62 l 10.77,20.25 -3.55,4.15 -11.53,-21.63 0.02,-0.011 c -0.27,-0.569 -0.39,-1.229 -0.4,-1.91 -0.05,-1.28 0.29,-2.65 0.69,-3.71 z"
       id="path3737"
       style="fill:#babdb6" />
    <path
       d="m 247.664,556.56344 v 22.021 l -8.82,31.39 -5.73,6.87 10.02,-35.6 v -15 c -0.06,-3.341 2.09,-7.471 4.53,-9.681 z"
       id="path3739"
       style="fill:#babdb6" />
    <path
       d="m 312.654,662.86344 c -0.4,1.061 -0.74,2.431 -0.69,3.71 l -2.74,0.101 -8.48,-4.9 -1.12,0.84 -1.93,-2.56 c -1.31,-1.99 -1.41,-4.1 -0.96,-6.38 l 10.05,-35.72 0.01,0.01 15.9,9.2 -10.04,35.699 z"
       id="path3741"
       style="fill:#babdb6" />
    <path
       d="m 231.744,547.37344 15.92,9.189 c -2.44,2.21 -4.59,6.34 -4.53,9.681 v 15 l -15.91,-9.19 v -5.24 -9.77 c -0.06,-3.38 2.11,-7.41 4.52,-9.67 z"
       id="path3743"
       style="fill:#babdb6" />
    <path
       d="m 237.284,614.15344 0.04,0.021 c -0.6,1.87 -1.1,3.72 -0.29,5.62 l 10.77,20.2 -3.5,4.199 -11.53,-21.63 0.02,-0.01 c -0.32,-0.521 -0.44,-1.23 -0.44,-2 0,-1.29 0.35,-2.73 0.73,-3.62 l 0.03,-0.09 5.73,-6.87 -1.56,4.18 z"
       id="path3745"
       style="fill:#babdb6" />
    <path
       d="m 233.114,616.84344 -0.03,0.09 c -0.38,0.89 -0.73,2.33 -0.73,3.62 l -2.65,0.24 -8.44,-4.91 -1.14,0.86 -2,-2.671 c -1.28,-1.54 -1.41,-4.47 -0.96,-6.34 l 10.06,-35.68 15.91,9.19 -10.02,35.601 z"
       id="path3747"
       style="fill:#babdb6" />
    <path
       d="m 232.774,622.56344 11.53,21.63 -0.01,0.021 -6.3,-3.65 -17.87,-23.821 1.14,-0.86 8.44,4.91 2.65,-0.24 c 0,0.77 0.12,1.479 0.44,2 l -0.02,0.01 z"
       id="path3749"
       style="fill:#babdb6" />
    <path
       d="m 196.634,477.52344 v 0.01 4.61 c -0.03,1.99 1.67,3.67 3.29,4.58 l 166.41,96.09 0.68,0.391 c 4.3,2.52 11.63,2.55 15.91,0 l 167.14,-96.53 0.021,0.04 c 1.609,-0.91 3.3,-2.59 3.27,-4.57 v -4.3 c 0.141,-1.75 -0.96,-3.53 -3.29,-4.89 l 0.01,-0.02 7.95,4.59 c 2.33,1.43 3.431,3.2 3.29,4.94 -0.13,1.53 -1.229,3.03 -3.29,4.26 l -175.14,101.1 0.01,0.021 c -4.72,2.51 -11.16,2.47 -15.88,-0.021 l -175.051,-101.101 c -2.2,-1.27 -3.29,-2.92 -3.29,-4.57 v -0.01 c 0,-1.65 1.09,-3.3 3.25,-4.6 l -0.01,-0.02 8.01,-4.57 c -2.19,1.28 -3.29,2.92 -3.29,4.57 z"
       id="path3751"
       style="fill:#2e3436" />
    <path
       d="m 454.874,410.95487 0,66.56857 c -0.011,14.55 -11.57,25.9 -23.4,32.64 -16.81,9.62 -37.29,13.45 -56.5,13.53 -19.19,-0.09 -39.68,-3.91 -56.46,-13.53 -11.94,-6.79 -23.31,-18.02 -23.44,-32.64 l 0,-63.69714 c 9.21993,40.7409 68.76287,45.4595 78.56429,45.35571 10.61406,-0.15166 78.70663,-1.25311 81.23571,-48.22714 z"
       id="path3673"
       style="fill:#a40000" />
    <line
       stroke-miterlimit="10"
       x1="238.84401"
       y1="609.97345"
       x2="247.664"
       y2="578.58344"
       id="line3757"
       style="fill:none;stroke:#000000;stroke-width:2;stroke-linecap:round;stroke-linejoin:round;stroke-miterlimit:10" />
    <path
       d="m 295.07401,412.04058 0,65.48286"
       id="line3759"
       style="fill:none;stroke:#000000;stroke-width:2;stroke-linecap:round;stroke-linejoin:round;stroke-miterlimit:10" />
    <line
       stroke-miterlimit="10"
       x1="236.414"
       y1="468.32343"
       x2="236.414"
       y2="477.52344"
       id="line3761"
       style="fill:none;stroke:#000000;stroke-width:2;stroke-linecap:round;stroke-linejoin:round;stroke-miterlimit:10" />
    <line
       stroke-miterlimit="10"
       x1="363.724"
       y1="394.85345"
       x2="363.724"
       y2="404.05344"
       id="line3763"
       style="fill:none;stroke:#000000;stroke-width:2;stroke-linecap:round;stroke-linejoin:round;stroke-miterlimit:10" />
    <line
       stroke-miterlimit="10"
       x1="491.03302"
       y1="468.32343"
       x2="491.03302"
       y2="477.52344"
       id="line3765"
       style="fill:none;stroke:#000000;stroke-width:2;stroke-linecap:round;stroke-linejoin:round;stroke-miterlimit:10" />
    <line
       stroke-miterlimit="10"
       x1="363.724"
       y1="541.84344"
       x2="363.724"
       y2="551.04346"
       id="line3767"
       style="fill:none;stroke:#000000;stroke-width:2;stroke-linecap:round;stroke-linejoin:round;stroke-miterlimit:10" />
    <line
       stroke-miterlimit="10"
       x1="518.00397"
       y1="569.53345"
       x2="511.95401"
       y2="581.58344"
       id="line3769"
       style="fill:none;stroke:#000000;stroke-width:2;stroke-linecap:round;stroke-linejoin:round;stroke-miterlimit:10" />
    <polyline
       stroke-miterlimit="10"
       points="    43.86,248.06 45.86,250.73 63.73,274.55   "
       id="polyline3771"
       style="fill:none;stroke:#000000;stroke-width:2;stroke-linecap:round;stroke-linejoin:round;stroke-miterlimit:10"
       transform="translate(174.264,366.01344)" />
    <polyline
       stroke-miterlimit="10"
       points="    152.97,258.54 144.16,289.85 144.15,289.89   "
       id="polyline3773"
       style="fill:none;stroke:#000000;stroke-width:2;stroke-linecap:round;stroke-linejoin:round;stroke-miterlimit:10"
       transform="translate(174.264,366.01344)" />
    <polyline
       stroke-miterlimit="10"
       points="    334.26,215.38 337.69,215.57 337.74,215.57   "
       id="polyline3775"
       style="fill:none;stroke:#000000;stroke-width:2;stroke-linecap:round;stroke-linejoin:round;stroke-miterlimit:10"
       transform="translate(174.264,366.01344)" />
    <polyline
       stroke-miterlimit="10"
       points="    334.26,215.38 338.719,206.42 338.74,206.37   "
       id="polyline3777"
       style="fill:none;stroke:#000000;stroke-width:2;stroke-linecap:round;stroke-linejoin:round;stroke-miterlimit:10"
       transform="translate(174.264,366.01344)" />
    <polyline
       stroke-miterlimit="10"
       points="    138.39,296.85 148.43,261.15 148.44,261.12   "
       id="polyline3779"
       style="fill:none;stroke:#000000;stroke-width:2;stroke-linecap:round;stroke-linejoin:round;stroke-miterlimit:10"
       transform="translate(174.264,366.01344)" />
    <polyline
       stroke-miterlimit="10"
       points="    148.44,261.16 148.44,261.12 148.44,246.16   "
       id="polyline3781"
       style="fill:none;stroke:#000000;stroke-width:2;stroke-linecap:round;stroke-linejoin:round;stroke-miterlimit:10"
       transform="translate(174.264,366.01344)" />
    <path
       d="m 322.704,612.17344 c 0,-0.021 0,-0.03 0,-0.05 0.07,-3.641 1.96,-7.07 4.53,-9.58"
       id="path3783"
       style="fill:none;stroke:#000000;stroke-width:2;stroke-linecap:round;stroke-linejoin:round;stroke-miterlimit:10" />
    <line
       stroke-miterlimit="10"
       x1="327.23401"
       y1="602.54346"
       x2="327.23401"
       y2="624.55347"
       id="line3785"
       style="fill:none;stroke:#000000;stroke-width:2;stroke-linecap:round;stroke-linejoin:round;stroke-miterlimit:10" />
    <path
       d="m 217.164,607.73344 c -0.45,1.87 -0.32,4.8 0.96,6.34"
       id="path3787"
       style="fill:none;stroke:#000000;stroke-width:2;stroke-linecap:round;stroke-linejoin:round;stroke-miterlimit:10" />
    <polyline
       stroke-miterlimit="10"
       points="    122.47,287.66 132.52,251.94 132.53,251.92   "
       id="polyline3789"
       style="fill:none;stroke:#000000;stroke-width:2;stroke-linecap:round;stroke-linejoin:round;stroke-miterlimit:10"
       transform="translate(174.264,366.01344)" />
    <polyline
       stroke-miterlimit="10"
       points="    132.53,251.97 132.53,251.95 132.53,251.92 132.53,246.73 132.53,236.96   "
       id="polyline3791"
       style="fill:none;stroke:#000000;stroke-width:2;stroke-linecap:round;stroke-linejoin:round;stroke-miterlimit:10"
       transform="translate(174.264,366.01344)" />
    <path
       d="m 306.794,602.97344 c 0,-0.02 0,-0.03 0,-0.05 0.07,-3.641 1.96,-7.07 4.52,-9.57"
       id="path3793"
       style="fill:none;stroke:#000000;stroke-width:2;stroke-linecap:round;stroke-linejoin:round;stroke-miterlimit:10" />
    <line
       stroke-miterlimit="10"
       x1="309.504"
       y1="661.05347"
       x2="299.784"
       y2="655.43347"
       id="line3795"
       style="fill:none;stroke:#000000;stroke-linecap:round;stroke-linejoin:round;stroke-miterlimit:10" />
    <polyline
       stroke-miterlimit="10"
       points="    148.44,261.16 148.43,261.15 132.53,251.95 132.52,251.94 132.48,251.92   "
       id="polyline3797"
       style="fill:none;stroke:#000000;stroke-linecap:round;stroke-linejoin:round;stroke-miterlimit:10"
       transform="translate(174.264,366.01344)" />
    <line
       stroke-miterlimit="10"
       x1="319.55399"
       y1="610.36346"
       x2="309.84399"
       y2="604.73346"
       id="line3799"
       style="fill:none;stroke:#000000;stroke-linecap:round;stroke-linejoin:round;stroke-miterlimit:10" />
    <polyline
       stroke-miterlimit="10"
       points="    334.26,215.38 328.74,212.18 328.679,212.14   "
       id="polyline3801"
       style="fill:none;stroke:#000000;stroke-width:2;stroke-linecap:round;stroke-linejoin:round;stroke-miterlimit:10"
       transform="translate(174.264,366.01344)" />
    <polyline
       stroke-miterlimit="10"
       points="    63.73,274.55 70.03,278.2 70.06,278.22   "
       id="polyline3803"
       style="fill:none;stroke:#000000;stroke-width:2;stroke-linecap:round;stroke-linejoin:round;stroke-miterlimit:10"
       transform="translate(174.264,366.01344)" />
    <line
       stroke-miterlimit="10"
       x1="221.26401"
       y1="615.88342"
       x2="229.70399"
       y2="620.79346"
       id="line3805"
       style="fill:none;stroke:#000000;stroke-linecap:round;stroke-linejoin:round;stroke-miterlimit:10" />
    <line
       stroke-miterlimit="10"
       x1="327.23401"
       y1="624.55347"
       x2="367.01401"
       y2="647.52344"
       id="line3807"
       style="fill:none;stroke:#000000;stroke-width:2;stroke-linecap:round;stroke-linejoin:round;stroke-miterlimit:10" />
    <line
       stroke-miterlimit="10"
       x1="311.314"
       y1="593.35345"
       x2="327.23401"
       y2="602.54346"
       id="line3809"
       style="fill:none;stroke:#000000;stroke-width:2;stroke-linecap:round;stroke-linejoin:round;stroke-miterlimit:10" />
    <line
       stroke-miterlimit="10"
       x1="191.964"
       y1="486.72345"
       x2="367.01401"
       y2="587.82343"
       id="line3811"
       style="fill:none;stroke:#000000;stroke-width:2;stroke-linecap:round;stroke-linejoin:round;stroke-miterlimit:10" />
    <line
       stroke-miterlimit="10"
       x1="191.964"
       y1="490.34344"
       x2="191.964"
       y2="542.89343"
       id="line3813"
       style="fill:none;stroke:#000000;stroke-linecap:round;stroke-linejoin:round;stroke-miterlimit:10" />
    <line
       stroke-miterlimit="10"
       x1="191.964"
       y1="546.46344"
       x2="227.224"
       y2="566.81342"
       id="line3815"
       style="fill:none;stroke:#000000;stroke-width:2;stroke-linecap:round;stroke-linejoin:round;stroke-miterlimit:10" />
    <path
       d="m 191.964,546.46344 c -1.67,-1.05 -3.28,-2.49 -3.29,-4.62"
       id="path3817"
       style="fill:none;stroke:#000000;stroke-width:2;stroke-linecap:round;stroke-linejoin:round;stroke-miterlimit:10" />
    <path
       d="m 188.674,482.15344 c 0,1.65 1.09,3.3 3.29,4.57"
       id="path3819"
       style="fill:none;stroke:#000000;stroke-width:2;stroke-linecap:round;stroke-linejoin:round;stroke-miterlimit:10" />
    <path
       d="m 191.964,477.52344 c -0.01,0.01 -0.03,0.02 -0.04,0.02 -2.16,1.3 -3.25,2.95 -3.25,4.6"
       id="path3821"
       style="fill:none;stroke:#000000;stroke-width:2;stroke-linecap:round;stroke-linejoin:round;stroke-miterlimit:10" />
    <path
       d="m 296.734,653.67344 c -0.45,2.28 -0.35,4.39 0.96,6.38"
       id="path3823"
       style="fill:none;stroke:#000000;stroke-width:2;stroke-linecap:round;stroke-linejoin:round;stroke-miterlimit:10" />
    <polyline
       stroke-miterlimit="10"
       points="    123.43,294.04 125.36,296.6 143.27,320.45 143.29,320.48   "
       id="polyline3825"
       style="fill:none;stroke:#000000;stroke-width:2;stroke-linecap:round;stroke-linejoin:round;stroke-miterlimit:10"
       transform="translate(174.264,366.01344)" />
    <line
       stroke-miterlimit="10"
       x1="199.924"
       y1="483.71344"
       x2="199.924"
       y2="485.19345"
       id="line3827"
       style="fill:none;stroke:#000000;stroke-linecap:round;stroke-linejoin:round;stroke-miterlimit:10" />
    <polyline
       stroke-miterlimit="10"
       points="    25.66,120.71 192.07,216.8 192.75,217.19   "
       id="polyline3829"
       style="fill:none;stroke:#000000;stroke-width:2;stroke-linecap:round;stroke-linejoin:round;stroke-miterlimit:10"
       transform="translate(174.264,366.01344)" />
    <line
       stroke-miterlimit="10"
       x1="199.924"
       y1="472.95343"
       x2="367.01401"
       y2="376.42343"
       id="line3831"
       style="fill:none;stroke:#000000;stroke-width:2;stroke-linecap:round;stroke-linejoin:round;stroke-miterlimit:10" />
    <path
       d="m 196.634,477.53344 c 0,1.64 1.07,3.28 3.23,4.57 0.02,0.02 0.04,0.03 0.06,0.04"
       id="path3833"
       style="fill:none;stroke:#000000;stroke-width:2;stroke-linecap:round;stroke-linejoin:round;stroke-miterlimit:10" />
    <path
       d="m 199.924,472.95344 c -2.19,1.28 -3.29,2.92 -3.29,4.57"
       id="path3835"
       style="fill:none;stroke:#000000;stroke-width:2;stroke-linecap:round;stroke-linejoin:round;stroke-miterlimit:10" />
    <path
       d="m 199.924,486.72344 c -1.62,-0.91 -3.32,-2.59 -3.29,-4.58"
       id="path3837"
       style="fill:none;stroke:#000000;stroke-width:2;stroke-linecap:round;stroke-linejoin:round;stroke-miterlimit:10" />
    <line
       stroke-miterlimit="10"
       x1="367.01401"
       y1="581.63342"
       x2="367.01401"
       y2="580.10345"
       id="line3839"
       style="fill:none;stroke:#000000;stroke-linecap:round;stroke-linejoin:round;stroke-miterlimit:10" />
    <line
       stroke-miterlimit="10"
       x1="367.01401"
       y1="578.62341"
       x2="199.87401"
       y2="482.09344"
       id="line3841"
       style="fill:none;stroke:#000000;stroke-width:2;stroke-linecap:round;stroke-linejoin:round;stroke-miterlimit:10" />
    <path
       d="m 367.014,578.62344 c 0.19,0.1 0.38,0.199 0.58,0.279 4.66,2.221 10.77,2.16 15.3,-0.26 0.01,-0.01 0.021,-0.01 0.03,-0.02"
       id="path3843"
       style="fill:none;stroke:#000000;stroke-width:2;stroke-linecap:round;stroke-linejoin:round;stroke-miterlimit:10" />
    <line
       stroke-miterlimit="10"
       x1="382.92401"
       y1="580.20343"
       x2="382.92401"
       y2="581.67346"
       id="line3845"
       style="fill:none;stroke:#000000;stroke-linecap:round;stroke-linejoin:round;stroke-miterlimit:10" />
    <line
       stroke-miterlimit="10"
       x1="382.92401"
       y1="583.20343"
       x2="550.06396"
       y2="486.67343"
       id="line3847"
       style="fill:none;stroke:#000000;stroke-width:2;stroke-linecap:round;stroke-linejoin:round;stroke-miterlimit:10" />
    <path
       d="m 382.924,583.20344 c -4.28,2.55 -11.61,2.52 -15.91,0"
       id="path3849"
       style="fill:none;stroke:#000000;stroke-width:2;stroke-linecap:round;stroke-linejoin:round;stroke-miterlimit:10" />
    <line
       stroke-miterlimit="10"
       x1="550.06396"
       y1="485.14343"
       x2="550.06396"
       y2="483.62344"
       id="line3851"
       style="fill:none;stroke:#000000;stroke-linecap:round;stroke-linejoin:round;stroke-miterlimit:10" />
    <line
       stroke-miterlimit="10"
       x1="550.06396"
       y1="482.14343"
       x2="382.884"
       y2="578.62341"
       id="line3853"
       style="fill:none;stroke:#000000;stroke-width:2;stroke-linecap:round;stroke-linejoin:round;stroke-miterlimit:10" />
    <path
       d="m 550.064,482.14344 c 2.061,-1.22 3.16,-2.75 3.29,-4.3 0.141,-1.75 -0.96,-3.53 -3.29,-4.89"
       id="path3855"
       style="fill:none;stroke:#000000;stroke-width:2;stroke-linecap:round;stroke-linejoin:round;stroke-miterlimit:10" />
    <path
       d="m 553.354,482.14344 c 0.03,1.98 -1.66,3.66 -3.27,4.57 -0.011,0 -0.011,0.01 -0.021,0.01"
       id="path3857"
       style="fill:none;stroke:#000000;stroke-width:2;stroke-linecap:round;stroke-linejoin:round;stroke-miterlimit:10" />
    <line
       stroke-miterlimit="10"
       x1="382.92401"
       y1="376.46344"
       x2="550.06396"
       y2="472.95343"
       id="line3859"
       style="fill:none;stroke:#000000;stroke-width:2;stroke-linecap:round;stroke-linejoin:round;stroke-miterlimit:10" />
    <path
       d="m 382.924,376.46344 c -4.271,-2.55 -11.59,-2.52 -15.89,-0.01 -0.01,0 -0.01,0.01 -0.02,0.01"
       id="path3861"
       style="fill:none;stroke:#000000;stroke-width:2;stroke-linecap:round;stroke-linejoin:round;stroke-miterlimit:10" />
    <polyline
       stroke-miterlimit="10"
       points="    208.66,281.51 328.74,212.18 338.719,206.42 343.74,203.52 343.74,203.51 383.76,180.41   "
       id="polyline3863"
       style="fill:none;stroke:#000000;stroke-width:2;stroke-linecap:round;stroke-linejoin:round;stroke-miterlimit:10"
       transform="translate(174.264,366.01344)" />
    <polyline
       stroke-miterlimit="10"
       points="    14.41,116.13 14.41,116.14 14.41,175.83   "
       id="polyline3865"
       style="fill:none;stroke:#000000;stroke-width:2;stroke-linecap:round;stroke-linejoin:round;stroke-miterlimit:10"
       transform="translate(174.264,366.01344)" />
    <line
       stroke-miterlimit="10"
       x1="382.92401"
       y1="591.44342"
       x2="382.92401"
       y2="643.95343"
       id="line3867"
       style="fill:none;stroke:#000000;stroke-linecap:round;stroke-linejoin:round;stroke-miterlimit:10" />
    <path
       d="m 382.924,647.52344 c -4.28,2.55 -11.61,2.53 -15.91,0"
       id="path3869"
       style="fill:none;stroke:#000000;stroke-width:2;stroke-linecap:round;stroke-linejoin:round;stroke-miterlimit:10" />
    <line
       stroke-miterlimit="10"
       x1="367.01401"
       y1="643.90344"
       x2="367.01401"
       y2="591.34344"
       id="line3871"
       style="fill:none;stroke:#000000;stroke-linecap:round;stroke-linejoin:round;stroke-miterlimit:10" />
    <path
       d="m 367.014,587.82344 c 4.72,2.49 11.16,2.53 15.88,0.021 0.01,-0.01 0.021,-0.01 0.03,-0.021"
       id="path3873"
       style="fill:none;stroke:#000000;stroke-width:2;stroke-linecap:round;stroke-linejoin:round;stroke-miterlimit:10" />
    <polyline
       stroke-miterlimit="10"
       points="    22.37,111.51 22.37,111.52 22.37,116.13   "
       id="polyline3875"
       style="fill:none;stroke:#000000;stroke-width:2;stroke-linecap:round;stroke-linejoin:round;stroke-miterlimit:10"
       transform="translate(174.264,366.01344)" />
    <polyline
       stroke-miterlimit="10"
       points="    383.76,111.51 375.809,106.92 375.76,106.89   "
       id="polyline3877"
       style="fill:none;stroke:#000000;stroke-width:2;stroke-linecap:round;stroke-linejoin:round;stroke-miterlimit:10"
       transform="translate(174.264,366.01344)" />
    <path
       d="m 561.314,541.84344 c 0.021,2.09 -1.66,3.57 -3.27,4.61 -0.011,0 -0.011,0.01 -0.021,0.01"
       id="path3879"
       style="fill:none;stroke:#000000;stroke-width:2;stroke-linecap:round;stroke-linejoin:round;stroke-miterlimit:10" />
    <line
       stroke-miterlimit="10"
       x1="558.02399"
       y1="542.84344"
       x2="558.02399"
       y2="490.24344"
       id="line3881"
       style="fill:none;stroke:#000000;stroke-linecap:round;stroke-linejoin:round;stroke-miterlimit:10" />
    <line
       stroke-miterlimit="10"
       x1="558.02399"
       y1="486.72345"
       x2="382.884"
       y2="587.82343"
       id="line3883"
       style="fill:none;stroke:#000000;stroke-width:2;stroke-linecap:round;stroke-linejoin:round;stroke-miterlimit:10" />
    <path
       d="m 558.024,486.72344 c 2.061,-1.23 3.16,-2.73 3.29,-4.26 0.141,-1.74 -0.96,-3.51 -3.29,-4.94"
       id="path3885"
       style="fill:none;stroke:#000000;stroke-width:2;stroke-linecap:round;stroke-linejoin:round;stroke-miterlimit:10" />
    <line
       stroke-miterlimit="10"
       x1="199.924"
       y1="472.95343"
       x2="191.914"
       y2="477.52344"
       id="line3887"
       style="fill:none;stroke:#000000;stroke-width:2;stroke-linecap:round;stroke-linejoin:round;stroke-miterlimit:10" />
    <polyline
       stroke-miterlimit="10"
       points="    379.09,116.13 379.09,111.83 379.09,111.46   "
       id="polyline3889"
       style="fill:none;stroke:#000000;stroke-width:2;stroke-linecap:round;stroke-linejoin:round;stroke-miterlimit:10"
       transform="translate(174.264,366.01344)" />
    <polyline
       stroke-miterlimit="10"
       points="    149.63,324.15 149.61,324.11 138.08,302.48 138.05,302.43   "
       id="polyline3891"
       style="fill:none;stroke:#000000;stroke-width:2;stroke-linecap:round;stroke-linejoin:round;stroke-miterlimit:10"
       transform="translate(174.264,366.01344)" />
    <line
       stroke-miterlimit="10"
       x1="312.65399"
       y1="662.86346"
       x2="318.414"
       y2="655.86346"
       id="line3893"
       style="fill:none;stroke:#000000;stroke-width:2;stroke-linecap:round;stroke-linejoin:round;stroke-miterlimit:10" />
    <polyline
       stroke-miterlimit="10"
       points="    52.96,191.03 52.96,200.8 52.96,206.04   "
       id="polyline3895"
       style="fill:none;stroke:#000000;stroke-width:2;stroke-linecap:round;stroke-linejoin:round;stroke-miterlimit:10"
       transform="translate(174.264,366.01344)" />
    <path
       d="m 231.744,547.37344 c -2.41,2.26 -4.58,6.29 -4.52,9.67"
       id="path3897"
       style="fill:none;stroke:#000000;stroke-width:2;stroke-linecap:round;stroke-linejoin:round;stroke-miterlimit:10" />
    <line
       stroke-miterlimit="10"
       x1="227.224"
       y1="572.05341"
       x2="217.164"
       y2="607.73346"
       id="line3899"
       style="fill:none;stroke:#000000;stroke-width:2;stroke-linecap:round;stroke-linejoin:round;stroke-miterlimit:10" />
    <polyline
       stroke-miterlimit="10"
       points="    387.05,175.83 387.05,116.45 387.05,116.08   "
       id="polyline3901"
       style="fill:none;stroke:#000000;stroke-width:2;stroke-linecap:round;stroke-linejoin:round;stroke-miterlimit:10"
       transform="translate(174.264,366.01344)" />
    <polyline
       stroke-miterlimit="10"
       points="    153.16,319.96 149.61,324.11 149.6,324.13 149.58,324.15   "
       id="polyline3903"
       style="fill:none;stroke:#000000;stroke-width:2;stroke-linecap:round;stroke-linejoin:round;stroke-miterlimit:10"
       transform="translate(174.264,366.01344)" />
    <path
       d="m 312.364,668.48344 c -0.27,-0.569 -0.39,-1.229 -0.4,-1.91 -0.05,-1.279 0.29,-2.649 0.69,-3.71"
       id="path3905"
       style="fill:none;stroke:#000000;stroke-width:2;stroke-linecap:round;stroke-linejoin:round;stroke-miterlimit:10" />
    <path
       d="m 316.894,660.10344 c -0.52,1.54 -1.13,4.11 -0.24,5.62"
       id="path3907"
       style="fill:none;stroke:#000000;stroke-width:2;stroke-linecap:round;stroke-linejoin:round;stroke-miterlimit:10" />
    <polyline
       stroke-miterlimit="10"
       points="    144.15,289.89 142.59,294.07 142.58,294.09   "
       id="polyline3909"
       style="fill:none;stroke:#000000;stroke-width:2;stroke-linecap:round;stroke-linejoin:round;stroke-miterlimit:10"
       transform="translate(174.264,366.01344)" />
    <line
       stroke-miterlimit="10"
       x1="316.65399"
       y1="665.72345"
       x2="327.42401"
       y2="685.97345"
       id="line3911"
       style="fill:none;stroke:#000000;stroke-width:2;stroke-linecap:round;stroke-linejoin:round;stroke-miterlimit:10" />
    <polyline
       stroke-miterlimit="10"
       points="    73.4,212.61 73.4,212.57 73.4,190.55 73.4,190.51   "
       id="polyline3913"
       style="fill:none;stroke:#000000;stroke-width:2;stroke-linecap:round;stroke-linejoin:round;stroke-miterlimit:10"
       transform="translate(174.264,366.01344)" />
    <path
       d="m 247.664,556.56344 c -2.44,2.21 -4.59,6.34 -4.53,9.681"
       id="path3915"
       style="fill:none;stroke:#000000;stroke-width:2;stroke-linecap:round;stroke-linejoin:round;stroke-miterlimit:10" />
    <line
       stroke-miterlimit="10"
       x1="243.134"
       y1="566.24341"
       x2="243.134"
       y2="581.24341"
       id="line3917"
       style="fill:none;stroke:#000000;stroke-width:2;stroke-linecap:round;stroke-linejoin:round;stroke-miterlimit:10" />
    <polyline
       stroke-miterlimit="10"
       points="    68.87,215.23 58.85,250.83 58.82,250.92   "
       id="polyline3919"
       style="fill:none;stroke:#000000;stroke-width:2;stroke-linecap:round;stroke-linejoin:round;stroke-miterlimit:10"
       transform="translate(174.264,366.01344)" />
    <line
       stroke-miterlimit="10"
       x1="220.26401"
       y1="609.55341"
       x2="229.98401"
       y2="615.12341"
       id="line3921"
       style="fill:none;stroke:#000000;stroke-linecap:round;stroke-linejoin:round;stroke-miterlimit:10" />
    <line
       stroke-miterlimit="10"
       x1="227.224"
       y1="572.05341"
       x2="243.134"
       y2="581.24341"
       id="line3923"
       style="fill:none;stroke:#000000;stroke-linecap:round;stroke-linejoin:round;stroke-miterlimit:10" />
    <line
       stroke-miterlimit="10"
       x1="230.364"
       y1="558.85345"
       x2="240.034"
       y2="564.43341"
       id="line3925"
       style="fill:none;stroke:#000000;stroke-linecap:round;stroke-linejoin:round;stroke-miterlimit:10" />
    <path
       d="m 454.874,412.03344 c 0.02,0.62 0.02,1.24 0,1.85 -0.41,13.6 -10.61,24.06 -21.681,30.88 -16.12,9.85 -36.55,14.09 -55.27,14.49 -19.1,0.42 -39.95,-3.16 -56.98,-12.1 -12.8,-6.7 -25.75,-18.44 -25.87,-33.97 0.06,-14.41 11.35,-25.67 23.06,-32.45 16.54,-9.55 36.94,-13.52 55.88,-13.72 19.12,-0.04 39.56,3.61 56.42,12.96 11.961,6.55 23.76,17.56 24.441,32.06 z"
       id="path3753"
       style="fill:#a40000" />
    <path
       d="m 295.074,413.18344 c 0.06,-14.41 11.35,-25.67 23.06,-32.45 16.54,-9.55 36.94,-13.52 55.88,-13.72 19.12,-0.04 39.56,3.61 56.42,12.96 11.96,6.55 23.76,17.56 24.44,32.06 0.02,0.62 0.02,1.24 0,1.85 -0.41,13.6 -10.61,24.06 -21.681,30.88 -16.12,9.85 -36.55,14.09 -55.27,14.49 -19.1,0.42 -39.95,-3.16 -56.98,-12.1 -12.799,-6.7 -25.749,-18.44 -25.869,-33.97"
       id="path3927"
       style="fill:none;stroke:#000000;stroke-width:2;stroke-linecap:round;stroke-linejoin:round;stroke-miterlimit:10" />
    <path
       d="m 295.074,477.52344 c 0.13,14.62 11.5,25.85 23.44,32.64 16.78,9.62 37.27,13.44 56.46,13.53 19.21,-0.08 39.69,-3.91 56.5,-13.53 11.83,-6.74 23.39,-18.09 23.4,-32.64"
       id="path3929"
       style="fill:none;stroke:#000000;stroke-width:2;stroke-linecap:round;stroke-linejoin:round;stroke-miterlimit:10" />
    <path
       d="m 258.904,468.32344 c -0.61,8.67 -21.85,8.66 -22.49,0"
       id="path3931"
       style="fill:none;stroke:#000000;stroke-width:2;stroke-linecap:round;stroke-linejoin:round;stroke-miterlimit:10" />
    <path
       d="m 236.414,468.32344 c 0.7,-8.59 21.76,-8.61 22.49,-0.04"
       id="path3933"
       style="fill:none;stroke:#000000;stroke-width:2;stroke-linecap:round;stroke-linejoin:round;stroke-miterlimit:10" />
    <path
       d="m 236.414,477.52344 c 0.63,8.65 21.9,8.66 22.49,0"
       id="path3935"
       style="fill:none;stroke:#000000;stroke-width:2;stroke-linecap:round;stroke-linejoin:round;stroke-miterlimit:10" />
    <path
       d="m 513.573,468.32344 c -0.64,8.67 -21.899,8.65 -22.54,0"
       id="path3943"
       style="fill:none;stroke:#000000;stroke-width:2;stroke-linecap:round;stroke-linejoin:round;stroke-miterlimit:10" />
    <path
       d="m 491.033,468.32344 c 0.721,-8.58 21.75,-8.62 22.54,-0.04"
       id="path3945"
       style="fill:none;stroke:#000000;stroke-width:2;stroke-linecap:round;stroke-linejoin:round;stroke-miterlimit:10" />
    <line
       stroke-miterlimit="10"
       x1="247.664"
       y1="578.62341"
       x2="306.79401"
       y2="612.74341"
       id="line3947"
       style="fill:none;stroke:#000000;stroke-width:2;stroke-linecap:round;stroke-linejoin:round;stroke-miterlimit:10" />
    <polyline
       stroke-miterlimit="10"
       points="    149.63,324.15 149.6,324.13 143.27,320.45 143.25,320.44   "
       id="polyline3949"
       style="fill:none;stroke:#000000;stroke-width:2;stroke-linecap:round;stroke-linejoin:round;stroke-miterlimit:10"
       transform="translate(174.264,366.01344)" />
    <line
       stroke-miterlimit="10"
       x1="309.224"
       y1="666.67346"
       x2="300.74402"
       y2="661.77344"
       id="line3951"
       style="fill:none;stroke:#000000;stroke-linecap:round;stroke-linejoin:round;stroke-miterlimit:10" />
    <line
       stroke-miterlimit="10"
       x1="231.744"
       y1="547.37341"
       x2="247.664"
       y2="556.56342"
       id="line3953"
       style="fill:none;stroke:#000000;stroke-width:2;stroke-linecap:round;stroke-linejoin:round;stroke-miterlimit:10" />
    <path
       d="m 491.033,477.52344 c 0.631,8.62 21.9,8.67 22.54,0"
       id="path3955"
       style="fill:none;stroke:#000000;stroke-width:2;stroke-linecap:round;stroke-linejoin:round;stroke-miterlimit:10" />
    <path
       d="m 363.724,541.84344 c 0.72,-8.62 21.82,-8.6 22.54,0 -0.72,8.63 -21.81,8.67 -22.54,0"
       id="path3957"
       style="fill:none;stroke:#000000;stroke-width:2;stroke-linecap:round;stroke-linejoin:round;stroke-miterlimit:10" />
    <path
       d="m 363.724,551.04344 c 0.74,8.64 21.8,8.62 22.54,0"
       id="path3959"
       style="fill:none;stroke:#000000;stroke-width:2;stroke-linecap:round;stroke-linejoin:round;stroke-miterlimit:10" />
    <polyline
       stroke-miterlimit="10"
       points="    70.06,278.22 70.04,278.18 58.51,256.55 58.48,256.5   "
       id="polyline3961"
       style="fill:none;stroke:#000000;stroke-width:2;stroke-linecap:round;stroke-linejoin:round;stroke-miterlimit:10"
       transform="translate(174.264,366.01344)" />
    <path
       d="m 237.324,614.17344 c -0.6,1.87 -1.1,3.72 -0.29,5.62"
       id="path3963"
       style="fill:none;stroke:#000000;stroke-width:2;stroke-linecap:round;stroke-linejoin:round;stroke-miterlimit:10" />
    <polyline
       stroke-miterlimit="10"
       points="    64.58,243.96 58.85,250.83 58.77,250.92   "
       id="polyline3965"
       style="fill:none;stroke:#000000;stroke-width:2;stroke-linecap:round;stroke-linejoin:round;stroke-miterlimit:10"
       transform="translate(174.264,366.01344)" />
    <path
       d="m 280.61,111.51 0,-17.64 0,-49.678572"
       transform="translate(174.264,366.01344)"
       id="polyline3967"
       style="fill:none;stroke:#000000;stroke-width:2;stroke-linecap:round;stroke-linejoin:round;stroke-miterlimit:10" />
    <polyline
       stroke-miterlimit="10"
       points="    73.54,273.98 70.04,278.18 70.03,278.2 70.01,278.22   "
       id="polyline3969"
       style="fill:none;stroke:#000000;stroke-width:2;stroke-linecap:round;stroke-linejoin:round;stroke-miterlimit:10"
       transform="translate(174.264,366.01344)" />
    <line
       stroke-miterlimit="10"
       x1="237.034"
       y1="619.79346"
       x2="247.804"
       y2="639.99347"
       id="line3971"
       style="fill:none;stroke:#000000;stroke-width:2;stroke-linecap:round;stroke-linejoin:round;stroke-miterlimit:10" />
    <polyline
       stroke-miterlimit="10"
       points="    64.58,243.96 63.02,248.14 63.01,248.16   "
       id="polyline3973"
       style="fill:none;stroke:#000000;stroke-width:2;stroke-linecap:round;stroke-linejoin:round;stroke-miterlimit:10"
       transform="translate(174.264,366.01344)" />
    <path
       d="m 232.794,622.55344 c -0.32,-0.521 -0.44,-1.23 -0.44,-2 0,-1.29 0.35,-2.73 0.73,-3.62"
       id="path3975"
       style="fill:none;stroke:#000000;stroke-width:2;stroke-linecap:round;stroke-linejoin:round;stroke-miterlimit:10" />
    <polyline
       stroke-miterlimit="10"
       points="    84.64,111.51 84.64,102.31 84.64,102.27   "
       id="polyline3977"
       style="fill:none;stroke:#000000;stroke-width:2;stroke-linecap:round;stroke-linejoin:round;stroke-miterlimit:10"
       transform="translate(174.264,366.01344)" />
    <polyline
       stroke-miterlimit="10"
       points="    339.309,111.51 339.309,102.31 339.309,102.27   "
       id="polyline3981"
       style="fill:none;stroke:#000000;stroke-width:2;stroke-linecap:round;stroke-linejoin:round;stroke-miterlimit:10"
       transform="translate(174.264,366.01344)" />
    <polyline
       stroke-miterlimit="10"
       points="    212,185.03 212,175.83 212,175.78   "
       id="polyline3983"
       style="fill:none;stroke:#000000;stroke-width:2;stroke-linecap:round;stroke-linejoin:round;stroke-miterlimit:10"
       transform="translate(174.264,366.01344)" />
  </g>
</svg>
