<?xml version="1.0" encoding="UTF-8" standalone="no"?>
<!-- Created with Inkscape (http://www.inkscape.org/) -->

<svg
   xmlns:dc="http://purl.org/dc/elements/1.1/"
   xmlns:cc="http://creativecommons.org/ns#"
   xmlns:rdf="http://www.w3.org/1999/02/22-rdf-syntax-ns#"
   xmlns:svg="http://www.w3.org/2000/svg"
   xmlns="http://www.w3.org/2000/svg"
   version="1.1"
   width="374.64999"
   height="325.14999"
   viewBox="0 0 374.65 325.15"
   id="Layer_1"
   xml:space="preserve"
   style="overflow:visible"><metadata
     id="metadata3985"><rdf:RDF><cc:Work
         rdf:about=""><dc:format>image/svg+xml</dc:format><dc:type
           rdf:resource="http://purl.org/dc/dcmitype/StillImage" /><dc:title></dc:title></cc:Work></rdf:RDF></metadata><defs
     id="defs3651"><filter
       color-interpolation-filters="sRGB"
       id="filter4492"><feGaussianBlur
         id="feGaussianBlur4494"
         stdDeviation="5"
         result="result91" /><feComposite
         in2="result91"
         operator="over"
         in="SourceGraphic"
         id="feComposite4496" /></filter><filter
       color-interpolation-filters="sRGB"
       id="filter4498"><feGaussianBlur
         id="feGaussianBlur4500"
         stdDeviation="5"
         result="result91" /><feComposite
         in2="result91"
         operator="over"
         in="SourceGraphic"
         id="feComposite4502" /></filter></defs><path
     d="m 325.899,102.31031 v 9.20006 c -0.64,8.67007 -21.909,8.62007 -22.54,0 v -9.20006 c 0.641,8.65005 21.901,8.67005 22.54,0 z"
     id="path3661"
     style="fill:#a06e6e" /><path
     d="m 325.899,102.27031 v 0.04 c -0.64,8.67005 -21.899,8.65005 -22.54,0 0.721,-8.580046 21.75,-8.620046 22.54,-0.04 z"
     id="path3663"
     style="fill:#a06e6e" /><path
     d="m 325.899,102.31031 v 9.20006 c -0.64,8.67007 -21.909,8.62007 -22.54,0 v -9.20006 c 0.641,8.65005 21.901,8.67005 22.54,0 z"
     id="path3665"
     style="fill:#2e3436" /><path
     d="m 325.899,102.27031 v 0.04 c -0.64,8.67005 -21.899,8.65005 -22.54,0 0.721,-8.580046 21.75,-8.620046 22.54,-0.04 z"
     id="path3667"
     style="fill:#2e3436" /><path
     d="m 198.59,175.83044 v 9.2 c -0.74,8.62 -21.8,8.64 -22.54,0 v -9.2 c 0.73,8.67 21.82,8.63 22.54,0 z"
     id="path3669"
     style="fill:#2e3436" /><path
     d="m 176.05,175.83044 c 0.72,-8.62 21.82,-8.6 22.54,0 -0.72,8.63 -21.81,8.67 -22.54,0 z"
     id="path3671"
     style="fill:#2e3436" /><path
     d="m 267.2,93.870264 v 17.640096 c -0.011,14.55007 -11.57,25.90007 -23.4,32.64007 -16.81,9.62 -37.29,13.45 -56.5,13.53 -19.19,-0.09 -39.68,-3.91 -56.46,-13.53 -11.94,-6.79 -23.31,-18.02 -23.44,-32.64007 V 93.170264 c 0.12,15.530066 13.07,27.270166 25.87,33.970166 17.03,8.94 37.88,12.52 56.98,12.1 18.72,-0.4 39.149,-4.64 55.27,-14.49 11.07,-6.82002 21.27,-17.28009 21.68,-30.880166 z"
     id="path3673"
     style="fill:#a40000;filter:url(#filter4492)" /><path
     d="m 71.23,102.31031 v 9.20006 c -0.59,8.66007 -21.86,8.65007 -22.49,0 v -9.20006 c 0.64,8.66005 21.88,8.67005 22.49,0 z"
     id="path3675"
     style="fill:#2e3436" /><path
     d="m 71.23,102.27031 v 0.04 c -0.61,8.67005 -21.85,8.66005 -22.49,0 0.7,-8.590046 21.76,-8.610046 22.49,-0.04 z"
     id="path3677"
     style="fill:#2e3436" /><path
     d="m 365.68,116.13041 c 0.03,1.98001 -1.66,3.66002 -3.27,4.57003 l -0.021,-0.04 -167.14,96.53 c -4.28,2.55 -11.61,2.52 -15.91,0 l -0.68,-0.391 0.68,-1.18 v -1.53 l 0.58,-1.2 c 4.66,2.221 10.77,2.16 15.3,-0.26 l -0.01,-0.02 167.18,-96.48003 c 2.061,-1.22002 3.16,-2.75003 3.29,-4.30004 v 4.30104 z"
     id="path3679"
     style="fill:#babdb6" /><path
     d="m 59.99,190.55044 -15.92,-9.189 c -2.41,2.26 -4.58,6.29 -4.52,9.67 v 9.77 l -35.2600001,-20.351 c -1.67,-1.05 -3.28,-2.49 -3.28999999,-4.62 v -59.69003 c 0,1.65001 1.08999999,3.30002 3.28999999,4.57003 L 179.34,221.81044 c 4.72,2.49 11.16,2.53 15.88,0.021 l -0.01,-0.021 175.14,-101.1 c 2.061,-1.23001 3.16,-2.73002 3.29,-4.26003 v 59.38003 c 0.021,2.09 -1.66,3.57 -3.27,4.61 l -0.021,-0.03 -40.02,23.1 v 0.01 l -5.021,2.9 -9.979,5.76 -120.08,69.33 c -4.28,2.55 -11.61,2.53 -15.91,0 l -39.78,-22.97 v -22.01 l -15.92,-9.19 c -2.56,2.5 -4.45,5.93 -4.52,9.57 0,0.02 0,0.03 0,0.05 v 9.771 l -59.129,-34.121 v -0.04 -22.02 z"
     id="path3681"
     style="fill:#a06e6e" /><polygon
     points="337.69,215.57 334.26,215.38 338.719,206.42 343.74,203.52 "
     transform="translate(-13.41,2.713848e-4)"
     id="polygon3683"
     style="fill:#babdb6" /><polygon
     points="328.74,212.18 338.719,206.42 334.26,215.38 "
     transform="translate(-13.41,2.713848e-4)"
     id="polygon3685"
     style="fill:#babdb6" /><path
     d="m 198.59,28.840268 v 9.199996 c -0.72,8.6 -21.82,8.62 -22.54,0 v -9.199996 c 0.72,8.629996 21.82,8.599996 22.54,0 z"
     id="path3687"
     style="fill:#a06e6e" /><path
     d="m 198.59,28.800268 v 0.04 c -0.72,8.599996 -21.82,8.629996 -22.54,0 0.64,-8.649998 21.84,-8.619998 22.54,-0.04 z"
     id="path3689"
     style="fill:#a06e6e" /><path
     d="m 198.59,175.83044 c -0.72,-8.6 -21.82,-8.62 -22.54,0 v 9.2 c 0.74,8.64 21.8,8.62 22.54,0 v -9.2 z M 176.05,38.040264 c 0.72,8.62 21.82,8.6 22.54,0 v -9.199996 -0.04 c -0.7,-8.579998 -21.9,-8.609998 -22.54,0.04 v 9.199996 z m 189.63,73.790106 c -0.13,1.55001 -1.229,3.08002 -3.29,4.30004 l -167.18,96.48003 0.01,0.02 c -4.53,2.42 -10.64,2.48 -15.3,0.26 -0.2,-0.08 -0.39,-0.18 -0.58,-0.279 L 12.2,116.08041 l -0.01,0.01 c -2.16,-1.29002 -3.2300001,-2.93003 -3.2300001,-4.57004 v -0.01 c 0,-1.65002 1.1000001,-3.29003 3.2900001,-4.57003 l 167.09,-96.530067 0.02,0.03 c 4.3,-2.5099999 11.62,-2.5399999 15.89,0.01 l 167.14,96.490067 c 2.33,1.36 3.43,3.14002 3.29,4.89003 z M 186.34,47.000264 c -18.94,0.2 -39.34,4.17 -55.88,13.72 -11.71,6.78 -23,18.04 -23.06,32.45 v 18.340106 c 0.13,14.62007 11.5,25.85007 23.44,32.64007 16.78,9.62 37.27,13.44 56.46,13.53 19.21,-0.08 39.69,-3.91 56.5,-13.53 11.83,-6.74 23.39,-18.09 23.4,-32.64007 V 93.870264 c 0.02,-0.61 0.02,-1.23 0,-1.85 -0.681,-14.5 -12.48,-25.51 -24.44,-32.06 -16.861,-9.35 -37.3,-13 -56.42,-12.96 z m 139.559,64.510106 v -9.20006 -0.04 c -0.79,-8.580046 -21.819,-8.540046 -22.54,0.04 v 9.20006 c 0.631,8.62007 21.901,8.67007 22.54,0 z m -254.669,0 v -9.20006 -0.04 c -0.73,-8.570046 -21.79,-8.550046 -22.49,0.04 v 9.20006 c 0.63,8.65007 21.9,8.66007 22.49,0 z"
     id="path3691"
     style="fill:#a06e6e" /><path
     d="m 135.03,246.11044 c 0.07,-3.641 1.96,-7.07 4.53,-9.58 v 22.01 l -8.81,31.31 h -0.01 l -5.76,7 10.04,-35.699 0.01,0.01 v -0.04 -14.96 c 0,-0.021 0,-0.031 0,-0.051 z"
     id="path3693"
     style="fill:#babdb6" /><path
     d="m 139.56,236.53044 c -2.57,2.51 -4.46,5.939 -4.53,9.58 0,0.02 0,0.029 0,0.05 v 14.96 l -0.01,0.03 -15.9,-9.2 v -0.03 -5.189 -9.771 c 0,-0.02 0,-0.03 0,-0.05 0.07,-3.641 1.96,-7.07 4.52,-9.57 l 15.92,9.19 z"
     id="path3695"
     style="fill:#babdb6" /><path
     d="m 124.67,302.48044 11.53,21.63 -0.01,0.02 -6.33,-3.68 -17.91,-23.85 1.12,-0.84 8.48,4.9 2.74,-0.101 c 0.01,0.681 0.13,1.341 0.4,1.91 l -0.02,0.011 z"
     id="path3697"
     style="fill:#babdb6" /><path
     d="m 124.98,296.85044 5.76,-7 h 0.01 l -0.01,0.04 -1.56,4.181 0.04,0.02 c -0.52,1.54 -1.13,4.11 -0.24,5.62 l 10.77,20.25 -3.55,4.15 -11.53,-21.63 0.02,-0.011 c -0.27,-0.569 -0.39,-1.229 -0.4,-1.91 -0.05,-1.28 0.29,-2.65 0.69,-3.71 z"
     id="path3699"
     style="fill:#babdb6" /><path
     d="m 124.98,296.85044 c -0.4,1.061 -0.74,2.431 -0.69,3.71 l -2.74,0.101 -8.48,-4.9 -1.12,0.84 -1.93,-2.56 c -1.31,-1.99 -1.41,-4.1 -0.96,-6.38 l 10.05,-35.72 0.01,0.01 15.9,9.2 -10.04,35.699 z"
     id="path3701"
     style="fill:#babdb6" /><path
     d="m 59.99,190.55044 v 22.021 l -8.82,31.39 -5.73,6.87 10.02,-35.6 v -15 c -0.06,-3.341 2.09,-7.471 4.53,-9.681 z"
     id="path3703"
     style="fill:#babdb6" /><path
     d="m 44.07,181.36044 15.92,9.189 c -2.44,2.21 -4.59,6.34 -4.53,9.681 v 15 l -15.91,-9.19 v -5.24 -9.77 c -0.06,-3.38 2.11,-7.41 4.52,-9.67 z"
     id="path3705"
     style="fill:#babdb6" /><path
     d="m 49.61,248.14044 0.04,0.021 c -0.6,1.87 -1.1,3.72 -0.29,5.62 l 10.77,20.2 -3.5,4.199 -11.53,-21.63 0.02,-0.01 c -0.32,-0.521 -0.44,-1.23 -0.44,-2 0,-1.29 0.35,-2.73 0.73,-3.62 l 0.03,-0.09 5.73,-6.87 -1.56,4.18 z"
     id="path3707"
     style="fill:#babdb6" /><path
     d="m 45.44,250.83044 -0.03,0.09 c -0.38,0.89 -0.73,2.33 -0.73,3.62 l -2.65,0.24 -8.44,-4.91 -1.14,0.86 -2,-2.671 c -1.28,-1.54 -1.41,-4.47 -0.96,-6.34 l 10.06,-35.68 15.91,9.19 -10.02,35.601 z"
     id="path3709"
     style="fill:#babdb6" /><path
     d="m 45.1,256.55044 11.53,21.63 -0.01,0.021 -6.3,-3.65 -17.87,-23.821 1.14,-0.86 8.44,4.91 2.65,-0.24 c 0,0.77 0.12,1.479 0.44,2 l -0.02,0.01 z"
     id="path3711"
     style="fill:#babdb6" /><path
     d="m 8.9599999,111.51037 v 0.01 4.61004 c -0.03,1.99001 1.6700001,3.67002 3.2900001,4.58003 l 166.41,96.09 0.68,0.391 c 4.3,2.52 11.63,2.55 15.91,0 l 167.14,-96.53 0.021,0.04 c 1.609,-0.91001 3.3,-2.59002 3.27,-4.57003 v -4.30004 c 0.141,-1.75001 -0.96,-3.53003 -3.29,-4.89003 l 0.01,-0.02 7.95,4.59003 c 2.33,1.43001 3.431,3.20002 3.29,4.94004 -0.13,1.53001 -1.229,3.03002 -3.29,4.26003 l -175.14,101.1 0.01,0.021 c -4.72,2.51 -11.16,2.47 -15.88,-0.021 L 4.2899999,120.71044 c -2.2,-1.27001 -3.28999999,-2.92002 -3.28999999,-4.57003 v -0.01 c 0,-1.65002 1.08999999,-3.30003 3.24999999,-4.60004 l -0.01,-0.02 L 12.25,106.94034 c -2.19,1.28 -3.2900001,2.92001 -3.2900001,4.57003 z"
     id="path3713"
     style="fill:#a06e6e" /><path
     d="m 12.2,116.08041 167.14,96.53003 c 0.19,0.1 0.38,0.199 0.58,0.279 l -0.58,1.2 v 1.53 l -0.68,1.18 -166.41,-96.089 c -1.62,-0.91001 -3.3200001,-2.59002 -3.2900001,-4.58003 v -4.61004 c 0,1.64001 1.0700001,3.28002 3.2300001,4.57004 l 0.01,-0.01 z"
     id="path3715"
     style="fill:#a06e6e" /><path
     d="m 12.2,116.08041 167.14,96.53003 c 0.19,0.1 0.38,0.199 0.58,0.279 l -0.58,1.2 v 1.53 l -0.68,1.18 -166.41,-96.089 c -1.62,-0.91001 -3.3200001,-2.59002 -3.2900001,-4.58003 v -4.61004 c 0,1.64001 1.0700001,3.28002 3.2300001,4.57004 l 0.01,-0.01 z"
     id="path3717"
     style="fill:#babdb6" /><path
     d="m 59.99,190.55044 -15.92,-9.189 c -2.41,2.26 -4.58,6.29 -4.52,9.67 v 9.77 l -35.2600001,-20.351 c -1.67,-1.05 -3.28,-2.49 -3.28999999,-4.62 v -59.69003 c 0,1.65001 1.08999999,3.30002 3.28999999,4.57003 L 179.34,221.81044 c 4.72,2.49 11.16,2.53 15.88,0.021 l -0.01,-0.021 175.14,-101.1 c 2.061,-1.23001 3.16,-2.73002 3.29,-4.26003 v 59.38003 c 0.021,2.09 -1.66,3.57 -3.27,4.61 l -0.021,-0.03 -40.02,23.1 v 0.01 l -5.021,2.9 -9.979,5.76 -120.08,69.33 c -4.28,2.55 -11.61,2.53 -15.91,0 l -39.78,-22.97 v -22.01 l -15.92,-9.19 c -2.56,2.5 -4.45,5.93 -4.52,9.57 0,0.02 0,0.03 0,0.05 v 9.771 l -59.129,-34.121 v -0.04 -22.02 z"
     id="path3719"
     style="fill:#2e3436" /><polygon
     points="337.69,215.57 334.26,215.38 338.719,206.42 343.74,203.52 "
     transform="translate(-13.41,2.713848e-4)"
     id="polygon3721"
     style="fill:#babdb6" /><polygon
     points="328.74,212.18 338.719,206.42 334.26,215.38 "
     transform="translate(-13.41,2.713848e-4)"
     id="polygon3723"
     style="fill:#babdb6" /><path
     d="m 198.59,28.840268 v 9.199996 c -0.72,8.6 -21.82,8.62 -22.54,0 v -9.199996 c 0.72,8.629996 21.82,8.599996 22.54,0 z"
     id="path3725"
     style="fill:#2e3436" /><path
     d="m 198.59,28.800268 v 0.04 c -0.72,8.599996 -21.82,8.629996 -22.54,0 0.64,-8.649998 21.84,-8.619998 22.54,-0.04 z"
     id="path3727"
     style="fill:#2e3436" /><path
     d="m 198.59,175.83044 c -0.72,-8.6 -21.82,-8.62 -22.54,0 v 9.2 c 0.74,8.64 21.8,8.62 22.54,0 v -9.2 z M 176.05,38.040264 c 0.72,8.62 21.82,8.6 22.54,0 v -9.199996 -0.04 c -0.7,-8.579998 -21.9,-8.609998 -22.54,0.04 v 9.199996 z m 189.63,73.790106 c -0.13,1.55001 -1.229,3.08002 -3.29,4.30004 l -167.18,96.48003 0.01,0.02 c -4.53,2.42 -10.64,2.48 -15.3,0.26 -0.2,-0.08 -0.39,-0.18 -0.58,-0.279 L 12.2,116.08041 l -0.01,0.01 c -2.16,-1.29002 -3.2300001,-2.93003 -3.2300001,-4.57004 v -0.01 c 0,-1.65002 1.1000001,-3.29003 3.2900001,-4.57003 l 167.09,-96.530067 0.02,0.03 c 4.3,-2.5099999 11.62,-2.5399999 15.89,0.01 l 167.14,96.490067 c 2.33,1.36 3.43,3.14002 3.29,4.89003 z M 186.34,47.000264 c -18.94,0.2 -39.34,4.17 -55.88,13.72 -11.71,6.78 -23,18.04 -23.06,32.45 v 18.340106 c 0.13,14.62007 11.5,25.85007 23.44,32.64007 16.78,9.62 37.27,13.44 56.46,13.53 19.21,-0.08 39.69,-3.91 56.5,-13.53 11.83,-6.74 23.39,-18.09 23.4,-32.64007 V 93.870264 c 0.02,-0.61 0.02,-1.23 0,-1.85 -0.681,-14.5 -12.48,-25.51 -24.44,-32.06 -16.861,-9.35 -37.3,-13 -56.42,-12.96 z m 139.559,64.510106 v -9.20006 -0.04 c -0.79,-8.580046 -21.819,-8.540046 -22.54,0.04 v 9.20006 c 0.631,8.62007 21.901,8.67007 22.54,0 z m -254.669,0 v -9.20006 -0.04 c -0.73,-8.570046 -21.79,-8.550046 -22.49,0.04 v 9.20006 c 0.63,8.65007 21.9,8.66007 22.49,0 z"
     id="path3729"
     style="fill:#babdb6" /><path
     d="m 135.03,246.11044 c 0.07,-3.641 1.96,-7.07 4.53,-9.58 v 22.01 l -8.81,31.31 h -0.01 l -5.76,7 10.04,-35.699 0.01,0.01 v -0.04 -14.96 c 0,-0.021 0,-0.031 0,-0.051 z"
     id="path3731"
     style="fill:#babdb6" /><path
     d="m 139.56,236.53044 c -2.57,2.51 -4.46,5.939 -4.53,9.58 0,0.02 0,0.029 0,0.05 v 14.96 l -0.01,0.03 -15.9,-9.2 v -0.03 -5.189 -9.771 c 0,-0.02 0,-0.03 0,-0.05 0.07,-3.641 1.96,-7.07 4.52,-9.57 l 15.92,9.19 z"
     id="path3733"
     style="fill:#babdb6" /><path
     d="m 124.67,302.48044 11.53,21.63 -0.01,0.02 -6.33,-3.68 -17.91,-23.85 1.12,-0.84 8.48,4.9 2.74,-0.101 c 0.01,0.681 0.13,1.341 0.4,1.91 l -0.02,0.011 z"
     id="path3735"
     style="fill:#babdb6" /><path
     d="m 124.98,296.85044 5.76,-7 h 0.01 l -0.01,0.04 -1.56,4.181 0.04,0.02 c -0.52,1.54 -1.13,4.11 -0.24,5.62 l 10.77,20.25 -3.55,4.15 -11.53,-21.63 0.02,-0.011 c -0.27,-0.569 -0.39,-1.229 -0.4,-1.91 -0.05,-1.28 0.29,-2.65 0.69,-3.71 z"
     id="path3737"
     style="fill:#babdb6" /><path
     d="m 59.99,190.55044 v 22.021 l -8.82,31.39 -5.73,6.87 10.02,-35.6 v -15 c -0.06,-3.341 2.09,-7.471 4.53,-9.681 z"
     id="path3739"
     style="fill:#babdb6" /><path
     d="m 124.98,296.85044 c -0.4,1.061 -0.74,2.431 -0.69,3.71 l -2.74,0.101 -8.48,-4.9 -1.12,0.84 -1.93,-2.56 c -1.31,-1.99 -1.41,-4.1 -0.96,-6.38 l 10.05,-35.72 0.01,0.01 15.9,9.2 -10.04,35.699 z"
     id="path3741"
     style="fill:#babdb6" /><path
     d="m 44.07,181.36044 15.92,9.189 c -2.44,2.21 -4.59,6.34 -4.53,9.681 v 15 l -15.91,-9.19 v -5.24 -9.77 c -0.06,-3.38 2.11,-7.41 4.52,-9.67 z"
     id="path3743"
     style="fill:#babdb6" /><path
     d="m 49.61,248.14044 0.04,0.021 c -0.6,1.87 -1.1,3.72 -0.29,5.62 l 10.77,20.2 -3.5,4.199 -11.53,-21.63 0.02,-0.01 c -0.32,-0.521 -0.44,-1.23 -0.44,-2 0,-1.29 0.35,-2.73 0.73,-3.62 l 0.03,-0.09 5.73,-6.87 -1.56,4.18 z"
     id="path3745"
     style="fill:#babdb6" /><path
     d="m 45.44,250.83044 -0.03,0.09 c -0.38,0.89 -0.73,2.33 -0.73,3.62 l -2.65,0.24 -8.44,-4.91 -1.14,0.86 -2,-2.671 c -1.28,-1.54 -1.41,-4.47 -0.96,-6.34 l 10.06,-35.68 15.91,9.19 -10.02,35.601 z"
     id="path3747"
     style="fill:#babdb6" /><path
     d="m 45.1,256.55044 11.53,21.63 -0.01,0.021 -6.3,-3.65 -17.87,-23.821 1.14,-0.86 8.44,4.91 2.65,-0.24 c 0,0.77 0.12,1.479 0.44,2 l -0.02,0.01 z"
     id="path3749"
     style="fill:#babdb6" /><path
     d="m 8.9599999,111.51037 v 0.01 4.61004 c -0.03,1.99001 1.6700001,3.67002 3.2900001,4.58003 l 166.41,96.09 0.68,0.391 c 4.3,2.52 11.63,2.55 15.91,0 l 167.14,-96.53 0.021,0.04 c 1.609,-0.91001 3.3,-2.59002 3.27,-4.57003 v -4.30004 c 0.141,-1.75001 -0.96,-3.53003 -3.29,-4.89003 l 0.01,-0.02 7.95,4.59003 c 2.33,1.43001 3.431,3.20002 3.29,4.94004 -0.13,1.53001 -1.229,3.03002 -3.29,4.26003 l -175.14,101.1 0.01,0.021 c -4.72,2.51 -11.16,2.47 -15.88,-0.021 L 4.2899999,120.71044 c -2.2,-1.27001 -3.28999999,-2.92002 -3.28999999,-4.57003 v -0.01 c 0,-1.65002 1.08999999,-3.30003 3.24999999,-4.60004 l -0.01,-0.02 L 12.25,106.94034 c -2.19,1.28 -3.2900001,2.92001 -3.2900001,4.57003 z"
     id="path3751"
     style="fill:#2e3436" /><path
     d="m 267.2,92.020264 c 0.02,0.62 0.02,1.24 0,1.85 -0.41,13.600076 -10.61,24.060146 -21.681,30.880166 -16.12,9.85 -36.55,14.09 -55.27,14.49 -19.1,0.42 -39.95,-3.16 -56.98,-12.1 -12.8,-6.7 -25.75,-18.4401 -25.87,-33.970166 0.06,-14.41 11.35,-25.67 23.06,-32.45 16.54,-9.55 36.94,-13.52 55.88,-13.72 19.12,-0.04 39.56,3.61 56.42,12.96 11.961,6.55 23.76,17.56 24.441,32.06 z"
     id="path3753"
     style="fill:#a40000;filter:url(#filter4498)" /><g
     transform="translate(-13.41,2.713848e-4)"
     id="g3755"><line
       style="fill:none;stroke:#000000;stroke-width:2;stroke-linecap:round;stroke-linejoin:round;stroke-miterlimit:10"
       id="line3757"
       y2="212.57001"
       x2="73.400002"
       y1="243.96001"
       x1="64.580002"
       stroke-miterlimit="10" /><line
       style="fill:none;stroke:#000000;stroke-width:2;stroke-linecap:round;stroke-linejoin:round;stroke-miterlimit:10"
       id="line3759"
       y2="111.51"
       x2="120.81"
       y1="93.169998"
       x1="120.81"
       stroke-miterlimit="10" /><line
       style="fill:none;stroke:#000000;stroke-width:2;stroke-linecap:round;stroke-linejoin:round;stroke-miterlimit:10"
       id="line3761"
       y2="111.51"
       x2="62.150002"
       y1="102.31"
       x1="62.150002"
       stroke-miterlimit="10" /><line
       style="fill:none;stroke:#000000;stroke-width:2;stroke-linecap:round;stroke-linejoin:round;stroke-miterlimit:10"
       id="line3763"
       y2="38.040001"
       x2="189.46001"
       y1="28.84"
       x1="189.46001"
       stroke-miterlimit="10" /><line
       style="fill:none;stroke:#000000;stroke-width:2;stroke-linecap:round;stroke-linejoin:round;stroke-miterlimit:10"
       id="line3765"
       y2="111.51"
       x2="316.76901"
       y1="102.31"
       x1="316.76901"
       stroke-miterlimit="10" /><line
       style="fill:none;stroke:#000000;stroke-width:2;stroke-linecap:round;stroke-linejoin:round;stroke-miterlimit:10"
       id="line3767"
       y2="185.03"
       x2="189.46001"
       y1="175.83"
       x1="189.46001"
       stroke-miterlimit="10" /><line
       style="fill:none;stroke:#000000;stroke-width:2;stroke-linecap:round;stroke-linejoin:round;stroke-miterlimit:10"
       id="line3769"
       y2="215.57001"
       x2="337.69"
       y1="203.52"
       x1="343.73999"
       stroke-miterlimit="10" /><polyline
       style="fill:none;stroke:#000000;stroke-width:2;stroke-linecap:round;stroke-linejoin:round;stroke-miterlimit:10"
       id="polyline3771"
       points="    43.86,248.06 45.86,250.73 63.73,274.55   "
       stroke-miterlimit="10" /><polyline
       style="fill:none;stroke:#000000;stroke-width:2;stroke-linecap:round;stroke-linejoin:round;stroke-miterlimit:10"
       id="polyline3773"
       points="    152.97,258.54 144.16,289.85 144.15,289.89   "
       stroke-miterlimit="10" /><polyline
       style="fill:none;stroke:#000000;stroke-width:2;stroke-linecap:round;stroke-linejoin:round;stroke-miterlimit:10"
       id="polyline3775"
       points="    334.26,215.38 337.69,215.57 337.74,215.57   "
       stroke-miterlimit="10" /><polyline
       style="fill:none;stroke:#000000;stroke-width:2;stroke-linecap:round;stroke-linejoin:round;stroke-miterlimit:10"
       id="polyline3777"
       points="    334.26,215.38 338.719,206.42 338.74,206.37   "
       stroke-miterlimit="10" /><polyline
       style="fill:none;stroke:#000000;stroke-width:2;stroke-linecap:round;stroke-linejoin:round;stroke-miterlimit:10"
       id="polyline3779"
       points="    138.39,296.85 148.43,261.15 148.44,261.12   "
       stroke-miterlimit="10" /><polyline
       style="fill:none;stroke:#000000;stroke-width:2;stroke-linecap:round;stroke-linejoin:round;stroke-miterlimit:10"
       id="polyline3781"
       points="    148.44,261.16 148.44,261.12 148.44,246.16   "
       stroke-miterlimit="10" /><path
       d="m 148.44,246.16 c 0,-0.021 0,-0.03 0,-0.05 0.07,-3.641 1.96,-7.07 4.53,-9.58"
       id="path3783"
       style="fill:none;stroke:#000000;stroke-width:2;stroke-linecap:round;stroke-linejoin:round;stroke-miterlimit:10" /><line
       style="fill:none;stroke:#000000;stroke-width:2;stroke-linecap:round;stroke-linejoin:round;stroke-miterlimit:10"
       id="line3785"
       y2="258.54001"
       x2="152.97"
       y1="236.53"
       x1="152.97"
       stroke-miterlimit="10" /><path
       d="m 42.9,241.72 c -0.45,1.87 -0.32,4.8 0.96,6.34"
       id="path3787"
       style="fill:none;stroke:#000000;stroke-width:2;stroke-linecap:round;stroke-linejoin:round;stroke-miterlimit:10" /><polyline
       style="fill:none;stroke:#000000;stroke-width:2;stroke-linecap:round;stroke-linejoin:round;stroke-miterlimit:10"
       id="polyline3789"
       points="    122.47,287.66 132.52,251.94 132.53,251.92   "
       stroke-miterlimit="10" /><polyline
       style="fill:none;stroke:#000000;stroke-width:2;stroke-linecap:round;stroke-linejoin:round;stroke-miterlimit:10"
       id="polyline3791"
       points="    132.53,251.97 132.53,251.95 132.53,251.92 132.53,246.73 132.53,236.96   "
       stroke-miterlimit="10" /><path
       d="m 132.53,236.96 c 0,-0.02 0,-0.03 0,-0.05 0.07,-3.641 1.96,-7.07 4.52,-9.57"
       id="path3793"
       style="fill:none;stroke:#000000;stroke-width:2;stroke-linecap:round;stroke-linejoin:round;stroke-miterlimit:10" /><line
       style="fill:none;stroke:#000000;stroke-linecap:round;stroke-linejoin:round;stroke-miterlimit:10"
       id="line3795"
       y2="289.42001"
       x2="125.52"
       y1="295.04001"
       x1="135.24001"
       stroke-miterlimit="10" /><polyline
       style="fill:none;stroke:#000000;stroke-linecap:round;stroke-linejoin:round;stroke-miterlimit:10"
       id="polyline3797"
       points="    148.44,261.16 148.43,261.15 132.53,251.95 132.52,251.94 132.48,251.92   "
       stroke-miterlimit="10" /><line
       style="fill:none;stroke:#000000;stroke-linecap:round;stroke-linejoin:round;stroke-miterlimit:10"
       id="line3799"
       y2="238.72"
       x2="135.58"
       y1="244.35001"
       x1="145.28999"
       stroke-miterlimit="10" /><polyline
       style="fill:none;stroke:#000000;stroke-width:2;stroke-linecap:round;stroke-linejoin:round;stroke-miterlimit:10"
       id="polyline3801"
       points="    334.26,215.38 328.74,212.18 328.679,212.14   "
       stroke-miterlimit="10" /><polyline
       style="fill:none;stroke:#000000;stroke-width:2;stroke-linecap:round;stroke-linejoin:round;stroke-miterlimit:10"
       id="polyline3803"
       points="    63.73,274.55 70.03,278.2 70.06,278.22   "
       stroke-miterlimit="10" /><line
       style="fill:none;stroke:#000000;stroke-linecap:round;stroke-linejoin:round;stroke-miterlimit:10"
       id="line3805"
       y2="254.78"
       x2="55.439999"
       y1="249.87"
       x1="47"
       stroke-miterlimit="10" /><line
       style="fill:none;stroke:#000000;stroke-width:2;stroke-linecap:round;stroke-linejoin:round;stroke-miterlimit:10"
       id="line3807"
       y2="281.51001"
       x2="192.75"
       y1="258.54001"
       x1="152.97"
       stroke-miterlimit="10" /><line
       style="fill:none;stroke:#000000;stroke-width:2;stroke-linecap:round;stroke-linejoin:round;stroke-miterlimit:10"
       id="line3809"
       y2="236.53"
       x2="152.97"
       y1="227.34"
       x1="137.05"
       stroke-miterlimit="10" /><line
       style="fill:none;stroke:#000000;stroke-width:2;stroke-linecap:round;stroke-linejoin:round;stroke-miterlimit:10"
       id="line3811"
       y2="221.81"
       x2="192.75"
       y1="120.71"
       x1="17.700001"
       stroke-miterlimit="10" /><line
       style="fill:none;stroke:#000000;stroke-linecap:round;stroke-linejoin:round;stroke-miterlimit:10"
       id="line3813"
       y2="176.88"
       x2="17.700001"
       y1="124.33"
       x1="17.700001"
       stroke-miterlimit="10" /><line
       style="fill:none;stroke:#000000;stroke-width:2;stroke-linecap:round;stroke-linejoin:round;stroke-miterlimit:10"
       id="line3815"
       y2="200.8"
       x2="52.959999"
       y1="180.45"
       x1="17.700001"
       stroke-miterlimit="10" /><path
       d="m 17.7,180.45 c -1.67,-1.05 -3.28,-2.49 -3.29,-4.62"
       id="path3817"
       style="fill:none;stroke:#000000;stroke-width:2;stroke-linecap:round;stroke-linejoin:round;stroke-miterlimit:10" /><path
       d="m 14.41,116.14 c 0,1.65 1.09,3.3 3.29,4.57"
       id="path3819"
       style="fill:none;stroke:#000000;stroke-width:2;stroke-linecap:round;stroke-linejoin:round;stroke-miterlimit:10" /><path
       d="m 17.7,111.51 c -0.01,0.01 -0.03,0.02 -0.04,0.02 -2.16,1.3 -3.25,2.95 -3.25,4.6"
       id="path3821"
       style="fill:none;stroke:#000000;stroke-width:2;stroke-linecap:round;stroke-linejoin:round;stroke-miterlimit:10" /><path
       d="m 122.47,287.66 c -0.45,2.28 -0.35,4.39 0.96,6.38"
       id="path3823"
       style="fill:none;stroke:#000000;stroke-width:2;stroke-linecap:round;stroke-linejoin:round;stroke-miterlimit:10" /><polyline
       style="fill:none;stroke:#000000;stroke-width:2;stroke-linecap:round;stroke-linejoin:round;stroke-miterlimit:10"
       id="polyline3825"
       points="    123.43,294.04 125.36,296.6 143.27,320.45 143.29,320.48   "
       stroke-miterlimit="10" /><line
       style="fill:none;stroke:#000000;stroke-linecap:round;stroke-linejoin:round;stroke-miterlimit:10"
       id="line3827"
       y2="119.18"
       x2="25.66"
       y1="117.7"
       x1="25.66"
       stroke-miterlimit="10" /><polyline
       style="fill:none;stroke:#000000;stroke-width:2;stroke-linecap:round;stroke-linejoin:round;stroke-miterlimit:10"
       id="polyline3829"
       points="    25.66,120.71 192.07,216.8 192.75,217.19   "
       stroke-miterlimit="10" /><line
       style="fill:none;stroke:#000000;stroke-width:2;stroke-linecap:round;stroke-linejoin:round;stroke-miterlimit:10"
       id="line3831"
       y2="10.41"
       x2="192.75"
       y1="106.94"
       x1="25.66"
       stroke-miterlimit="10" /><path
       d="m 22.37,111.52 c 0,1.64 1.07,3.28 3.23,4.57 0.02,0.02 0.04,0.03 0.06,0.04"
       id="path3833"
       style="fill:none;stroke:#000000;stroke-width:2;stroke-linecap:round;stroke-linejoin:round;stroke-miterlimit:10" /><path
       d="m 25.66,106.94 c -2.19,1.28 -3.29,2.92 -3.29,4.57"
       id="path3835"
       style="fill:none;stroke:#000000;stroke-width:2;stroke-linecap:round;stroke-linejoin:round;stroke-miterlimit:10" /><path
       d="m 25.66,120.71 c -1.62,-0.91 -3.32,-2.59 -3.29,-4.58"
       id="path3837"
       style="fill:none;stroke:#000000;stroke-width:2;stroke-linecap:round;stroke-linejoin:round;stroke-miterlimit:10" /><line
       style="fill:none;stroke:#000000;stroke-linecap:round;stroke-linejoin:round;stroke-miterlimit:10"
       id="line3839"
       y2="214.09"
       x2="192.75"
       y1="215.62"
       x1="192.75"
       stroke-miterlimit="10" /><line
       style="fill:none;stroke:#000000;stroke-width:2;stroke-linecap:round;stroke-linejoin:round;stroke-miterlimit:10"
       id="line3841"
       y2="116.08"
       x2="25.610001"
       y1="212.61"
       x1="192.75"
       stroke-miterlimit="10" /><path
       d="m 192.75,212.61 c 0.19,0.1 0.38,0.199 0.58,0.279 4.66,2.221 10.77,2.16 15.3,-0.26 0.01,-0.01 0.021,-0.01 0.03,-0.02"
       id="path3843"
       style="fill:none;stroke:#000000;stroke-width:2;stroke-linecap:round;stroke-linejoin:round;stroke-miterlimit:10" /><line
       style="fill:none;stroke:#000000;stroke-linecap:round;stroke-linejoin:round;stroke-miterlimit:10"
       id="line3845"
       y2="215.66"
       x2="208.66"
       y1="214.19"
       x1="208.66"
       stroke-miterlimit="10" /><line
       style="fill:none;stroke:#000000;stroke-width:2;stroke-linecap:round;stroke-linejoin:round;stroke-miterlimit:10"
       id="line3847"
       y2="120.66"
       x2="375.79999"
       y1="217.19"
       x1="208.66"
       stroke-miterlimit="10" /><path
       d="m 208.66,217.19 c -4.28,2.55 -11.61,2.52 -15.91,0"
       id="path3849"
       style="fill:none;stroke:#000000;stroke-width:2;stroke-linecap:round;stroke-linejoin:round;stroke-miterlimit:10" /><line
       style="fill:none;stroke:#000000;stroke-linecap:round;stroke-linejoin:round;stroke-miterlimit:10"
       id="line3851"
       y2="117.61"
       x2="375.79999"
       y1="119.13"
       x1="375.79999"
       stroke-miterlimit="10" /><line
       style="fill:none;stroke:#000000;stroke-width:2;stroke-linecap:round;stroke-linejoin:round;stroke-miterlimit:10"
       id="line3853"
       y2="212.61"
       x2="208.62"
       y1="116.13"
       x1="375.79999"
       stroke-miterlimit="10" /><path
       d="m 375.8,116.13 c 2.061,-1.22 3.16,-2.75 3.29,-4.3 0.141,-1.75 -0.96,-3.53 -3.29,-4.89"
       id="path3855"
       style="fill:none;stroke:#000000;stroke-width:2;stroke-linecap:round;stroke-linejoin:round;stroke-miterlimit:10" /><path
       d="m 379.09,116.13 c 0.03,1.98 -1.66,3.66 -3.27,4.57 -0.011,0 -0.011,0.01 -0.021,0.01"
       id="path3857"
       style="fill:none;stroke:#000000;stroke-width:2;stroke-linecap:round;stroke-linejoin:round;stroke-miterlimit:10" /><line
       style="fill:none;stroke:#000000;stroke-width:2;stroke-linecap:round;stroke-linejoin:round;stroke-miterlimit:10"
       id="line3859"
       y2="106.94"
       x2="375.79999"
       y1="10.45"
       x1="208.66"
       stroke-miterlimit="10" /><path
       d="m 208.66,10.45 c -4.271,-2.55 -11.59,-2.52 -15.89,-0.01 -0.01,0 -0.01,0.01 -0.02,0.01"
       id="path3861"
       style="fill:none;stroke:#000000;stroke-width:2;stroke-linecap:round;stroke-linejoin:round;stroke-miterlimit:10" /><polyline
       style="fill:none;stroke:#000000;stroke-width:2;stroke-linecap:round;stroke-linejoin:round;stroke-miterlimit:10"
       id="polyline3863"
       points="    208.66,281.51 328.74,212.18 338.719,206.42 343.74,203.52 343.74,203.51 383.76,180.41   "
       stroke-miterlimit="10" /><polyline
       style="fill:none;stroke:#000000;stroke-width:2;stroke-linecap:round;stroke-linejoin:round;stroke-miterlimit:10"
       id="polyline3865"
       points="    14.41,116.13 14.41,116.14 14.41,175.83   "
       stroke-miterlimit="10" /><line
       style="fill:none;stroke:#000000;stroke-linecap:round;stroke-linejoin:round;stroke-miterlimit:10"
       id="line3867"
       y2="277.94"
       x2="208.66"
       y1="225.42999"
       x1="208.66"
       stroke-miterlimit="10" /><path
       d="m 208.66,281.51 c -4.28,2.55 -11.61,2.53 -15.91,0"
       id="path3869"
       style="fill:none;stroke:#000000;stroke-width:2;stroke-linecap:round;stroke-linejoin:round;stroke-miterlimit:10" /><line
       style="fill:none;stroke:#000000;stroke-linecap:round;stroke-linejoin:round;stroke-miterlimit:10"
       id="line3871"
       y2="225.33"
       x2="192.75"
       y1="277.89001"
       x1="192.75"
       stroke-miterlimit="10" /><path
       d="m 192.75,221.81 c 4.72,2.49 11.16,2.53 15.88,0.021 0.01,-0.01 0.021,-0.01 0.03,-0.021"
       id="path3873"
       style="fill:none;stroke:#000000;stroke-width:2;stroke-linecap:round;stroke-linejoin:round;stroke-miterlimit:10" /><polyline
       style="fill:none;stroke:#000000;stroke-width:2;stroke-linecap:round;stroke-linejoin:round;stroke-miterlimit:10"
       id="polyline3875"
       points="    22.37,111.51 22.37,111.52 22.37,116.13   "
       stroke-miterlimit="10" /><polyline
       style="fill:none;stroke:#000000;stroke-width:2;stroke-linecap:round;stroke-linejoin:round;stroke-miterlimit:10"
       id="polyline3877"
       points="    383.76,111.51 375.809,106.92 375.76,106.89   "
       stroke-miterlimit="10" /><path
       d="m 387.05,175.83 c 0.021,2.09 -1.66,3.57 -3.27,4.61 -0.011,0 -0.011,0.01 -0.021,0.01"
       id="path3879"
       style="fill:none;stroke:#000000;stroke-width:2;stroke-linecap:round;stroke-linejoin:round;stroke-miterlimit:10" /><line
       style="fill:none;stroke:#000000;stroke-linecap:round;stroke-linejoin:round;stroke-miterlimit:10"
       id="line3881"
       y2="124.23"
       x2="383.76001"
       y1="176.83"
       x1="383.76001"
       stroke-miterlimit="10" /><line
       style="fill:none;stroke:#000000;stroke-width:2;stroke-linecap:round;stroke-linejoin:round;stroke-miterlimit:10"
       id="line3883"
       y2="221.81"
       x2="208.62"
       y1="120.71"
       x1="383.76001"
       stroke-miterlimit="10" /><path
       d="m 383.76,120.71 c 2.061,-1.23 3.16,-2.73 3.29,-4.26 0.141,-1.74 -0.96,-3.51 -3.29,-4.94"
       id="path3885"
       style="fill:none;stroke:#000000;stroke-width:2;stroke-linecap:round;stroke-linejoin:round;stroke-miterlimit:10" /><line
       style="fill:none;stroke:#000000;stroke-width:2;stroke-linecap:round;stroke-linejoin:round;stroke-miterlimit:10"
       id="line3887"
       y2="111.51"
       x2="17.65"
       y1="106.94"
       x1="25.66"
       stroke-miterlimit="10" /><polyline
       style="fill:none;stroke:#000000;stroke-width:2;stroke-linecap:round;stroke-linejoin:round;stroke-miterlimit:10"
       id="polyline3889"
       points="    379.09,116.13 379.09,111.83 379.09,111.46   "
       stroke-miterlimit="10" /><polyline
       style="fill:none;stroke:#000000;stroke-width:2;stroke-linecap:round;stroke-linejoin:round;stroke-miterlimit:10"
       id="polyline3891"
       points="    149.63,324.15 149.61,324.11 138.08,302.48 138.05,302.43   "
       stroke-miterlimit="10" /><line
       style="fill:none;stroke:#000000;stroke-width:2;stroke-linecap:round;stroke-linejoin:round;stroke-miterlimit:10"
       id="line3893"
       y2="289.85001"
       x2="144.14999"
       y1="296.85001"
       x1="138.39"
       stroke-miterlimit="10" /><polyline
       style="fill:none;stroke:#000000;stroke-width:2;stroke-linecap:round;stroke-linejoin:round;stroke-miterlimit:10"
       id="polyline3895"
       points="    52.96,191.03 52.96,200.8 52.96,206.04   "
       stroke-miterlimit="10" /><path
       d="m 57.48,181.36 c -2.41,2.26 -4.58,6.29 -4.52,9.67"
       id="path3897"
       style="fill:none;stroke:#000000;stroke-width:2;stroke-linecap:round;stroke-linejoin:round;stroke-miterlimit:10" /><line
       style="fill:none;stroke:#000000;stroke-width:2;stroke-linecap:round;stroke-linejoin:round;stroke-miterlimit:10"
       id="line3899"
       y2="241.72"
       x2="42.900002"
       y1="206.03999"
       x1="52.959999"
       stroke-miterlimit="10" /><polyline
       style="fill:none;stroke:#000000;stroke-width:2;stroke-linecap:round;stroke-linejoin:round;stroke-miterlimit:10"
       id="polyline3901"
       points="    387.05,175.83 387.05,116.45 387.05,116.08   "
       stroke-miterlimit="10" /><polyline
       style="fill:none;stroke:#000000;stroke-width:2;stroke-linecap:round;stroke-linejoin:round;stroke-miterlimit:10"
       id="polyline3903"
       points="    153.16,319.96 149.61,324.11 149.6,324.13 149.58,324.15   "
       stroke-miterlimit="10" /><path
       d="m 138.1,302.47 c -0.27,-0.569 -0.39,-1.229 -0.4,-1.91 -0.05,-1.279 0.29,-2.649 0.69,-3.71"
       id="path3905"
       style="fill:none;stroke:#000000;stroke-width:2;stroke-linecap:round;stroke-linejoin:round;stroke-miterlimit:10" /><path
       d="m 142.63,294.09 c -0.52,1.54 -1.13,4.11 -0.24,5.62"
       id="path3907"
       style="fill:none;stroke:#000000;stroke-width:2;stroke-linecap:round;stroke-linejoin:round;stroke-miterlimit:10" /><polyline
       style="fill:none;stroke:#000000;stroke-width:2;stroke-linecap:round;stroke-linejoin:round;stroke-miterlimit:10"
       id="polyline3909"
       points="    144.15,289.89 142.59,294.07 142.58,294.09   "
       stroke-miterlimit="10" /><line
       style="fill:none;stroke:#000000;stroke-width:2;stroke-linecap:round;stroke-linejoin:round;stroke-miterlimit:10"
       id="line3911"
       y2="319.95999"
       x2="153.16"
       y1="299.70999"
       x1="142.39"
       stroke-miterlimit="10" /><polyline
       style="fill:none;stroke:#000000;stroke-width:2;stroke-linecap:round;stroke-linejoin:round;stroke-miterlimit:10"
       id="polyline3913"
       points="    73.4,212.61 73.4,212.57 73.4,190.55 73.4,190.51   "
       stroke-miterlimit="10" /><path
       d="m 73.4,190.55 c -2.44,2.21 -4.59,6.34 -4.53,9.681"
       id="path3915"
       style="fill:none;stroke:#000000;stroke-width:2;stroke-linecap:round;stroke-linejoin:round;stroke-miterlimit:10" /><line
       style="fill:none;stroke:#000000;stroke-width:2;stroke-linecap:round;stroke-linejoin:round;stroke-miterlimit:10"
       id="line3917"
       y2="215.23"
       x2="68.870003"
       y1="200.23"
       x1="68.870003"
       stroke-miterlimit="10" /><polyline
       style="fill:none;stroke:#000000;stroke-width:2;stroke-linecap:round;stroke-linejoin:round;stroke-miterlimit:10"
       id="polyline3919"
       points="    68.87,215.23 58.85,250.83 58.82,250.92   "
       stroke-miterlimit="10" /><line
       style="fill:none;stroke:#000000;stroke-linecap:round;stroke-linejoin:round;stroke-miterlimit:10"
       id="line3921"
       y2="249.11"
       x2="55.720001"
       y1="243.53999"
       x1="46"
       stroke-miterlimit="10" /><line
       style="fill:none;stroke:#000000;stroke-linecap:round;stroke-linejoin:round;stroke-miterlimit:10"
       id="line3923"
       y2="215.23"
       x2="68.870003"
       y1="206.03999"
       x1="52.959999"
       stroke-miterlimit="10" /><line
       style="fill:none;stroke:#000000;stroke-linecap:round;stroke-linejoin:round;stroke-miterlimit:10"
       id="line3925"
       y2="198.42"
       x2="65.769997"
       y1="192.84"
       x1="56.099998"
       stroke-miterlimit="10" /><path
       d="M 120.81,93.17 C 120.87,78.76 132.16,67.5 143.87,60.72 160.41,51.17 180.81,47.2 199.75,47 c 19.12,-0.04 39.56,3.61 56.42,12.96 11.96,6.55 23.76,17.56 24.44,32.06 0.02,0.62 0.02,1.24 0,1.85 -0.41,13.6 -10.61,24.06 -21.681,30.88 -16.12,9.85 -36.55,14.09 -55.27,14.49 -19.1,0.42 -39.95,-3.16 -56.98,-12.1 C 133.88,120.44 120.93,108.7 120.81,93.17"
       id="path3927"
       style="fill:none;stroke:#000000;stroke-width:2;stroke-linecap:round;stroke-linejoin:round;stroke-miterlimit:10" /><path
       d="m 120.81,111.51 c 0.13,14.62 11.5,25.85 23.44,32.64 16.78,9.62 37.27,13.44 56.46,13.53 19.21,-0.08 39.69,-3.91 56.5,-13.53 11.83,-6.74 23.39,-18.09 23.4,-32.64"
       id="path3929"
       style="fill:none;stroke:#000000;stroke-width:2;stroke-linecap:round;stroke-linejoin:round;stroke-miterlimit:10" /><path
       d="m 84.64,102.31 c -0.61,8.67 -21.85,8.66 -22.49,0"
       id="path3931"
       style="fill:none;stroke:#000000;stroke-width:2;stroke-linecap:round;stroke-linejoin:round;stroke-miterlimit:10" /><path
       d="m 62.15,102.31 c 0.7,-8.59 21.76,-8.61 22.49,-0.04"
       id="path3933"
       style="fill:none;stroke:#000000;stroke-width:2;stroke-linecap:round;stroke-linejoin:round;stroke-miterlimit:10" /><path
       d="m 62.15,111.51 c 0.63,8.65 21.9,8.66 22.49,0"
       id="path3935"
       style="fill:none;stroke:#000000;stroke-width:2;stroke-linecap:round;stroke-linejoin:round;stroke-miterlimit:10" /><path
       d="m 212,28.84 c -0.72,8.6 -21.82,8.63 -22.54,0"
       id="path3937"
       style="fill:none;stroke:#000000;stroke-width:2;stroke-linecap:round;stroke-linejoin:round;stroke-miterlimit:10" /><path
       d="M 189.46,28.84 C 190.1,20.19 211.3,20.22 212,28.8"
       id="path3939"
       style="fill:none;stroke:#000000;stroke-width:2;stroke-linecap:round;stroke-linejoin:round;stroke-miterlimit:10" /><path
       d="m 189.46,38.04 c 0.72,8.62 21.82,8.6 22.54,0"
       id="path3941"
       style="fill:none;stroke:#000000;stroke-width:2;stroke-linecap:round;stroke-linejoin:round;stroke-miterlimit:10" /><path
       d="m 339.309,102.31 c -0.64,8.67 -21.899,8.65 -22.54,0"
       id="path3943"
       style="fill:none;stroke:#000000;stroke-width:2;stroke-linecap:round;stroke-linejoin:round;stroke-miterlimit:10" /><path
       d="m 316.769,102.31 c 0.721,-8.58 21.75,-8.62 22.54,-0.04"
       id="path3945"
       style="fill:none;stroke:#000000;stroke-width:2;stroke-linecap:round;stroke-linejoin:round;stroke-miterlimit:10" /><line
       style="fill:none;stroke:#000000;stroke-width:2;stroke-linecap:round;stroke-linejoin:round;stroke-miterlimit:10"
       id="line3947"
       y2="246.73"
       x2="132.53"
       y1="212.61"
       x1="73.400002"
       stroke-miterlimit="10" /><polyline
       style="fill:none;stroke:#000000;stroke-width:2;stroke-linecap:round;stroke-linejoin:round;stroke-miterlimit:10"
       id="polyline3949"
       points="    149.63,324.15 149.6,324.13 143.27,320.45 143.25,320.44   "
       stroke-miterlimit="10" /><line
       style="fill:none;stroke:#000000;stroke-linecap:round;stroke-linejoin:round;stroke-miterlimit:10"
       id="line3951"
       y2="295.76001"
       x2="126.48"
       y1="300.66"
       x1="134.96001"
       stroke-miterlimit="10" /><line
       style="fill:none;stroke:#000000;stroke-width:2;stroke-linecap:round;stroke-linejoin:round;stroke-miterlimit:10"
       id="line3953"
       y2="190.55"
       x2="73.400002"
       y1="181.36"
       x1="57.48"
       stroke-miterlimit="10" /><path
       d="m 316.769,111.51 c 0.631,8.62 21.9,8.67 22.54,0"
       id="path3955"
       style="fill:none;stroke:#000000;stroke-width:2;stroke-linecap:round;stroke-linejoin:round;stroke-miterlimit:10" /><path
       d="m 189.46,175.83 c 0.72,-8.62 21.82,-8.6 22.54,0 -0.72,8.63 -21.81,8.67 -22.54,0"
       id="path3957"
       style="fill:none;stroke:#000000;stroke-width:2;stroke-linecap:round;stroke-linejoin:round;stroke-miterlimit:10" /><path
       d="m 189.46,185.03 c 0.74,8.64 21.8,8.62 22.54,0"
       id="path3959"
       style="fill:none;stroke:#000000;stroke-width:2;stroke-linecap:round;stroke-linejoin:round;stroke-miterlimit:10" /><polyline
       style="fill:none;stroke:#000000;stroke-width:2;stroke-linecap:round;stroke-linejoin:round;stroke-miterlimit:10"
       id="polyline3961"
       points="    70.06,278.22 70.04,278.18 58.51,256.55 58.48,256.5   "
       stroke-miterlimit="10" /><path
       d="m 63.06,248.16 c -0.6,1.87 -1.1,3.72 -0.29,5.62"
       id="path3963"
       style="fill:none;stroke:#000000;stroke-width:2;stroke-linecap:round;stroke-linejoin:round;stroke-miterlimit:10" /><polyline
       style="fill:none;stroke:#000000;stroke-width:2;stroke-linecap:round;stroke-linejoin:round;stroke-miterlimit:10"
       id="polyline3965"
       points="    64.58,243.96 58.85,250.83 58.77,250.92   "
       stroke-miterlimit="10" /><polyline
       style="fill:none;stroke:#000000;stroke-width:2;stroke-linecap:round;stroke-linejoin:round;stroke-miterlimit:10"
       id="polyline3967"
       points="    280.61,111.51 280.61,93.87 280.61,93.12   "
       stroke-miterlimit="10" /><polyline
       style="fill:none;stroke:#000000;stroke-width:2;stroke-linecap:round;stroke-linejoin:round;stroke-miterlimit:10"
       id="polyline3969"
       points="    73.54,273.98 70.04,278.18 70.03,278.2 70.01,278.22   "
       stroke-miterlimit="10" /><line
       style="fill:none;stroke:#000000;stroke-width:2;stroke-linecap:round;stroke-linejoin:round;stroke-miterlimit:10"
       id="line3971"
       y2="273.98001"
       x2="73.540001"
       y1="253.78"
       x1="62.77"
       stroke-miterlimit="10" /><polyline
       style="fill:none;stroke:#000000;stroke-width:2;stroke-linecap:round;stroke-linejoin:round;stroke-miterlimit:10"
       id="polyline3973"
       points="    64.58,243.96 63.02,248.14 63.01,248.16   "
       stroke-miterlimit="10" /><path
       d="m 58.53,256.54 c -0.32,-0.521 -0.44,-1.23 -0.44,-2 0,-1.29 0.35,-2.73 0.73,-3.62"
       id="path3975"
       style="fill:none;stroke:#000000;stroke-width:2;stroke-linecap:round;stroke-linejoin:round;stroke-miterlimit:10" /><polyline
       style="fill:none;stroke:#000000;stroke-width:2;stroke-linecap:round;stroke-linejoin:round;stroke-miterlimit:10"
       id="polyline3977"
       points="    84.64,111.51 84.64,102.31 84.64,102.27   "
       stroke-miterlimit="10" /><polyline
       style="fill:none;stroke:#000000;stroke-width:2;stroke-linecap:round;stroke-linejoin:round;stroke-miterlimit:10"
       id="polyline3979"
       points="    212,38.04 212,28.84 212,28.8   "
       stroke-miterlimit="10" /><polyline
       style="fill:none;stroke:#000000;stroke-width:2;stroke-linecap:round;stroke-linejoin:round;stroke-miterlimit:10"
       id="polyline3981"
       points="    339.309,111.51 339.309,102.31 339.309,102.27   "
       stroke-miterlimit="10" /><polyline
       style="fill:none;stroke:#000000;stroke-width:2;stroke-linecap:round;stroke-linejoin:round;stroke-miterlimit:10"
       id="polyline3983"
       points="    212,185.03 212,175.83 212,175.78   "
       stroke-miterlimit="10" /></g></svg>